<?xml version="1.0" encoding="UTF-8"?><svg id="Layer_2" xmlns="http://www.w3.org/2000/svg" viewBox="0 0 21 15"><defs><style>.cls-1{fill:#171717;fill-rule:evenodd;}</style></defs><g id="Layer_1-2"><path class="cls-1" d="m1.5,13.5V2.18l8.57,5.93c.13.09.27.13.43.13s.3-.05.43-.13l8.57-5.93v11.32H1.5ZM17.85,1.5l-7.35,5.08L3.15,1.5h14.7Zm1.65-1.5H1.5c-.4,0-.78.16-1.06.44-.28.28-.44.66-.44,1.06v12c0,.4.16.78.44,1.06s.66.44,1.06.44h18c.4,0,.78-.16,1.06-.44.28-.28.44-.66.44-1.06V1.5c0-.4-.16-.78-.44-1.06s-.66-.44-1.06-.44Z"/></g></svg>