<svg fill="none" height="749" viewBox="0 0 477 749" width="477" xmlns="http://www.w3.org/2000/svg"><g stroke="#171717"><path d="m363.095 111.379h-.01" stroke-linecap="round" stroke-linejoin="round" stroke-width=".556877"/><path d="m362.84 110.699s.067.089.089.234c.022.111.056.279.078.446" stroke-linecap="round" stroke-linejoin="round" stroke-width=".556877"/><path d="m363.542 132.485c0-.468.011-.936.011-1.415v-1.681" stroke-linecap="round" stroke-linejoin="round" stroke-width=".556877"/><path d="m361.927 128.554v-2.517c0-.835 0-1.693.022-2.528 0-.925.022-1.838.045-2.707.011-.868.033-1.771.066-2.584.023-.824.067-1.548.09-2.238.022-.691.066-1.37.111-1.96.033-.591.078-1.092.111-1.526.045-.435.089-.824.134-1.114.056-.312.089-.535.145-.624.011-.044.044-.055.067-.067" stroke-linecap="round" stroke-linejoin="round" stroke-width=".556877"/><path d="m363.586 128.553h-1.659" stroke-linecap="round" stroke-linejoin="round" stroke-width=".556877"/><path d="m363.586 129.41v-.857" stroke-linecap="round" stroke-linejoin="round" stroke-width=".556877"/><path d="m316.942 180.342.602.089" stroke-linecap="round" stroke-linejoin="round" stroke-width=".556877"/><path d="m296.549 156.232v13.978c0 1.192 0 2.339.034 3.464.022 1.036.2 3.497.256 4.51" stroke-linecap="round" stroke-linejoin="round" stroke-width=".556877"/><path d="m333.671 96.8008-14.524.1336" stroke-linecap="round" stroke-linejoin="round" stroke-width=".556877"/><path d="m335.119 96.7891-16.038.1448" stroke-linecap="round" stroke-linejoin="round" stroke-width=".556877"/><path d="m319.203 96.9336-2.216.1559" stroke-linecap="round" stroke-linejoin="round" stroke-width=".556877"/><path d="m301.049 158.604v.199" stroke-linecap="round" stroke-linejoin="round" stroke-width=".556877"/><path d="m317.143 97.0547c-1.159.1559-2.306.323-3.442.5569-1.125.2339-2.261.5123-3.375.8575-1.113.3453-2.205.7574-3.218 1.3365-.624.3564-1.292.8574-1.871 1.2694" stroke-linecap="round" stroke-linejoin="round" stroke-width=".556877"/><path d="m335.943 97.5028v-.0673" stroke-linecap="round" stroke-linejoin="round" stroke-width=".556877"/><path d="m335.921 97.3899c-.045-.0891-.089-.1782-.145-.2562-.067-.0779-.134-.1447-.223-.2004-.089-.0669-.167-.0891-.256-.1114s-.178-.0223-.256-.0446" stroke-linecap="round" stroke-linejoin="round" stroke-width=".556877"/><path d="m300.247 171.01c-.524.423-1.069.846-1.515 1.336-.479.524-.869 1.114-1.214 1.749-.334.635-.624 1.347-.757 2.083-.067.401.111 1.692.089 2.105" stroke-linecap="round" stroke-linejoin="round" stroke-width=".556877"/><path d="m319.136 180.545 15.927.122" stroke-linecap="round" stroke-linejoin="round" stroke-width=".556877"/><path d="m335.018 180.656c.089 0 .179-.012.256-.045.09-.022.179-.067.257-.111.089-.056.156-.112.222-.201.067-.089.101-.167.156-.256" stroke-linecap="round" stroke-linejoin="round" stroke-width=".556877"/><path d="m335.865 180.108.066-.155" stroke-linecap="round" stroke-linejoin="round" stroke-width=".556877"/><path d="m317.566 180.445c.234.023.445.056.679.067.345.022.691.022 1.036.022" stroke-linecap="round" stroke-linejoin="round" stroke-width=".556877"/><path d="m316.942 180.342.602.089" stroke-linecap="round" stroke-linejoin="round" stroke-width=".556877"/><path d="m296.85 178.182c.056.59.111 1.191.189 1.759.145.992.357 1.883.658 2.729.178.524.401 1.036.646 1.504.245.467.512.902.857 1.314.156.178.323.367.524.568.178.156.367.334.623.512.201.156.446.312.713.468.256.145.557.278.835.412.323.145.669.256 1.014.356.401.112.824.201 1.247.257.479.066.958.078 1.437.066.557-.011 1.114-.089 1.66-.222.668-.156 1.314-.39 1.926-.691.735-.367 1.415-.835 2.016-1.381.334-.312.657-.657.947-1.013.312-.39.601-.813.824-1.259.178-.345.312-.702.468-1.069" stroke-linecap="round" stroke-linejoin="round" stroke-width=".556877"/><path d="m313.445 182.48c.156-.334.323-.657.534-.935.234-.312.535-.546.869-.747.334-.2.691-.345 1.069-.412.357-.067.713-.033 1.081-.022" stroke-linecap="round" stroke-linejoin="round" stroke-width=".556877"/><path d="m301.038 166.688c-.012.735-.023 1.459.078 2.171.011.145.033.257.066.39" stroke-linecap="round" stroke-linejoin="round" stroke-width=".556877"/><path d="m300.871 170.252c-.101.156-.223.334-.346.479-.122.145-.278.256-.423.367" stroke-linecap="round" stroke-linejoin="round" stroke-width=".556877"/><path d="m301.182 169.451s-.022.145-.066.256c-.067.179-.179.401-.279.602" stroke-linecap="round" stroke-linejoin="round" stroke-width=".556877"/><path d="m301.204 169.361-.033.156" stroke-linecap="round" stroke-linejoin="round" stroke-width=".556877"/><path d="m335.976 181.98c0 .368.279.68.657.702" stroke-linecap="round" stroke-linejoin="round" stroke-width=".556877"/><path d="m335.787 100.199-.067.155" stroke-linecap="round" stroke-linejoin="round" stroke-width=".556877"/><path d="m336.567 73.0098c-.335.0668-.591.3564-.591.6905" stroke-linecap="round" stroke-linejoin="round" stroke-width=".556877"/><path d="m335.976 180.164c0-.077-.011-.144-.056-.199" stroke-linecap="round" stroke-linejoin="round" stroke-width=".556877"/><path d="m335.954 91.2988-.089.6015" stroke-linecap="round" stroke-linejoin="round" stroke-width=".556877"/><path d="m335.03 94.0605-.947 1.7709" stroke-linecap="round" stroke-linejoin="round" stroke-width=".556877"/><path d="m334.094 95.7988-.423 1.0024" stroke-linecap="round" stroke-linejoin="round" stroke-width=".556877"/><path d="m339.295 187.281 1.092.056" stroke-linecap="round" stroke-linejoin="round" stroke-width=".556877"/><path d="m338.448 186.947c.234.201.535.323.847.334" stroke-linecap="round" stroke-linejoin="round" stroke-width=".556877"/><path d="m337.224 185.936 1.202 1.013" stroke-linecap="round" stroke-linejoin="round" stroke-width=".556877"/><path d="m336.722 70.6934-.156 1.7931" stroke-linecap="round" stroke-linejoin="round" stroke-width=".556877"/><path d="m336.566 183.193.156 1.782" stroke-linecap="round" stroke-linejoin="round" stroke-width=".556877"/><path d="m336.722 184.975c.045.367.201.712.501.957" stroke-linecap="round" stroke-linejoin="round" stroke-width=".556877"/><path d="m337.223 69.7383c-.278.245-.479.5903-.501.9578" stroke-linecap="round" stroke-linejoin="round" stroke-width=".556877"/><path d="m356.937 182.461c1.448-.39 2.528-1.593 2.762-3.074" stroke-linecap="round" stroke-linejoin="round" stroke-width=".556877"/><path d="m359.688 76.2966c-.234-1.4701-1.303-2.6841-2.762-3.0739" stroke-linecap="round" stroke-linejoin="round" stroke-width=".556877"/><path d="m363.185 111.322c-.557-11.7608-1.715-23.3995-3.497-35.0271" stroke-linecap="round" stroke-linejoin="round" stroke-width=".556877"/><path d="m287.65 141.875c.412.189.825.401 1.148.579.345.189.612.39.79.579.19.201.29.424.279.312" stroke-linecap="round" stroke-linejoin="round" stroke-width=".556877"/><path d="m285.835 140.992 1.827.88" stroke-linecap="round" stroke-linejoin="round" stroke-width=".556877"/><path d="m287.65 141.875c.412.189.825.401 1.148.579.345.189.612.39.79.579.19.201.29.424.279.312" stroke-linecap="round" stroke-linejoin="round" stroke-width=".556877"/><path d="m277.493 144.736h.411" stroke-linecap="round" stroke-linejoin="round" stroke-width=".556877"/><path d="m260.419 92.8125s.078.0668.145.1337c.089.0891.167.1781.256.3341.078.1336.156.2673.223.4455.078.1782.145.4121.2.6237.067.2561.112.5346.134.8464.022.3119.033.6349.033.9913s-.011.7239-.066 1.1026c-.034.3898-.089.7796-.156 1.1917s-.156.8242-.256 1.2585c-.101.423-.201.835-.335 1.259-.133.423-.256.824-.412 1.247-.1.312-.222.601-.334.913-.111.312-.256.624-.39.925-.178.423-.389.857-.59 1.281" stroke-linecap="round" stroke-linejoin="round" stroke-width=".556877"/><path d="m258.904 105.332c-.256.512-.523 1.036-.813 1.526-.111.2-.234.401-.345.601-.19.334-.401.657-.602.958-.2.312-.423.635-.646.936-.233.323-.456.623-.69.924-.234.29-.49.602-.735.869-.245.278-.501.557-.746.791-.245.245-.502.479-.758.69-.256.223-.501.401-.746.579s-.479.334-.702.446c-.234.133-.445.234-.657.323-.178.078-.367.145-.534.178-.156.033-.312.067-.435.078h-.156" stroke-linecap="round" stroke-linejoin="round" stroke-width=".556877"/><path d="m250.328 114.242h-.178c-.1 0-.189-.045-.2-.045" stroke-linecap="round" stroke-linejoin="round" stroke-width=".556877"/><path d="m335.976 179.674v-1.381" stroke-linecap="round" stroke-linejoin="round" stroke-width=".556877"/><path d="m316.998 132.908c.044-.268.066-.524.089-.791.055-.501.111-.991.156-1.493.033-.412.078-.824.111-1.236.045-.367.067-.746.089-1.102.067-.858.123-1.704.167-2.551.034-.746.067-1.459.089-2.194" stroke-linecap="round" stroke-linejoin="round" stroke-width=".556877"/><path d="m316.998 132.908v47.435" stroke-linecap="round" stroke-linejoin="round" stroke-width=".556877"/><path d="m315.483 177.369c-.111-.089-.234-.178-.345-.278-.112-.089-.234-.178-.357-.256-.111-.089-.234-.167-.356-.245-.111-.078-.234-.156-.356-.234-.101-.067-.234-.145-.346-.201-.1-.067-.222-.133-.334-.189-.1-.067-.2-.111-.312-.178-.089-.056-.178-.101-.278-.156-.089-.045-.167-.089-.256-.134-.067-.033-.145-.078-.223-.111-.067-.045-.111-.067-.178-.089-.056-.023-.089-.056-.145-.078-.033-.011-.078-.045-.1-.056-.023 0-.056-.022-.067-.045-.312-.155-.646-.311-.958-.478-.434-.201-.88-.413-1.336-.613-.39-.178-.769-.345-1.159-.523-.2-.09-.423-.19-.635-.279-.167-.078-.334-.156-.501-.234" stroke-linecap="round" stroke-linejoin="round" stroke-width=".556877"/><path d="m307.219 172.981c-.668-.312-1.303-.668-1.871-1.069" stroke-linecap="round" stroke-linejoin="round" stroke-width=".556877"/><path d="m305.337 171.912c-.112-.089-.234-.156-.357-.245-.167-.112-.334-.234-.49-.357-.2-.155-.412-.311-.59-.445-.234-.178-.445-.368-.646-.546-.245-.2-.457-.423-.657-.601-.279-.279-.501-.524-.679-.735-.145-.167-.257-.312-.346-.412-.067-.078-.111-.145-.167-.19-.022-.022-.055-.033-.067-.067" stroke-linecap="round" stroke-linejoin="round" stroke-width=".556877"/><path d="m301.36 168.326c-.077-.323-.144-.646-.189-.98" stroke-linecap="round" stroke-linejoin="round" stroke-width=".556877"/><path d="m301.182 167.334c-.111-.835-.133-1.693-.133-2.539" stroke-linecap="round" stroke-linejoin="round" stroke-width=".556877"/><path d="m301.038 164.819v-5.981" stroke-linecap="round" stroke-linejoin="round" stroke-width=".556877"/><path d="m301.038 158.836s0 .044.122-.034c.111-.078.334-.223.668-.434.346-.223.825-.524 1.459-.869.657-.356 1.448-.746 2.395-1.103" stroke-linecap="round" stroke-linejoin="round" stroke-width=".556877"/><path d="m305.693 156.375c.368-.245.769-.501 1.158-.78.39-.278.769-.579 1.159-.902.768-.646 1.514-1.381 2.205-2.216 1.381-1.66 2.517-3.664 3.408-5.814.902-2.138 1.582-4.399 2.127-6.727.546-2.305.947-4.678 1.237-7.028" stroke-linecap="round" stroke-linejoin="round" stroke-width=".556877"/><path d="m333.76 143.445c.145.234.278.446.423.68.1.167.2.334.312.501" stroke-linecap="round" stroke-linejoin="round" stroke-width=".556877"/><path d="m334.517 144.648.991 2.217" stroke-linecap="round" stroke-linejoin="round" stroke-width=".556877"/><path d="m333.76 143.445c.145.234.278.446.423.68.1.167.2.334.312.501" stroke-linecap="round" stroke-linejoin="round" stroke-width=".556877"/><path d="m334.517 144.648.991 2.195" stroke-linecap="round" stroke-linejoin="round" stroke-width=".556877"/><path d="m316.998 111.812c.055.335.1.669.144 1.003.034.334.089.69.134 1.036.033.356.078.724.111 1.08.034.356.067.746.101 1.114.033.39.066.768.089 1.169.044.501.067 1.003.089 1.515s.033 1.025.055 1.537c0 .512.012 1.069.023 1.604v1.659" stroke-linecap="round" stroke-linejoin="round" stroke-width=".556877"/><path d="m335.976 98.0366v-.2333-.0111" stroke-linecap="round" stroke-linejoin="round" stroke-width=".556877"/><path d="m335.976 97.7598v.8687" stroke-linecap="round" stroke-linejoin="round" stroke-width=".556877"/><path d="m301.038 158.838v-1.125" stroke-linecap="round" stroke-linejoin="round" stroke-width=".556877"/><path d="m312.688 179.575c-.101-.078-.19-.156-.312-.234-.112-.089-.201-.156-.334-.234-.112-.078-.234-.156-.357-.222-.122-.067-.234-.145-.356-.201-.134-.067-.245-.145-.368-.2-.111-.067-.245-.134-.367-.19-.112-.066-.245-.111-.357-.178-.111-.067-.234-.111-.356-.167-.334-.156-.668-.312-1.014-.445-.278-.112-.579-.234-.857-.357-.334-.133-.668-.256-1.003-.367-.2-.067-.4-.134-.601-.212-.156-.056-.334-.1-.49-.156" stroke-linecap="round" stroke-linejoin="round" stroke-width=".556877"/><path d="m305.905 176.423c-.78-.367-1.548-.79-2.261-1.28" stroke-linecap="round" stroke-linejoin="round" stroke-width=".556877"/><path d="m303.644 175.154c-.112-.1-.234-.223-.345-.334-.134-.134-.268-.256-.401-.368-.234-.2-.446-.423-.657-.635-.179-.178-.357-.345-.513-.523-.2-.223-.39-.423-.534-.624-.145-.178-.257-.345-.368-.501s-.2-.312-.278-.434c-.078-.123-.145-.245-.201-.335-.067-.089-.089-.155-.122-.222" stroke-linecap="round" stroke-linejoin="round" stroke-width=".556877"/><path d="m300.202 171.175c.423-.289.791-.746 1.003-1.258.2-.524.256-1.092.155-1.593" stroke-linecap="round" stroke-linejoin="round" stroke-width=".556877"/><path d="m313.367 180.299s-.089-.112-.134-.178c-.055-.067-.1-.112-.156-.179-.055-.067-.111-.111-.178-.178s-.145-.111-.2-.178" stroke-linecap="round" stroke-linejoin="round" stroke-width=".556877"/><path d="m313.367 180.277c.089.257.111.502.089.702" stroke-linecap="round" stroke-linejoin="round" stroke-width=".556877"/><path d="m300.202 171.177s-.033-.056-.033-.067-.022-.022-.033-.022h-.011" stroke-linecap="round" stroke-linejoin="round" stroke-width=".556877"/><path d="m335.976 176.959v2.706" stroke-linecap="round" stroke-linejoin="round" stroke-width=".556877"/><path d="m316.942 179.319c-.122-.144-.2-.312-.278-.456-.089-.156-.179-.346-.312-.535" stroke-linecap="round" stroke-linejoin="round" stroke-width=".556877"/><path d="m316.352 178.304c-.189-.278-.49-.601-.902-.947" stroke-linecap="round" stroke-linejoin="round" stroke-width=".556877"/><path d="m313.445 182.426v.033" stroke-linecap="round" stroke-linejoin="round" stroke-width=".556877"/><path d="m301.227 168.361s.011-.033.022-.055c0 0 .022-.011.033-.011s.045.011.067.022" stroke-linecap="round" stroke-linejoin="round" stroke-width=".556877"/><path d="m301.183 168.871v-.256s0-.089.011-.122c0-.034.011-.067.022-.1" stroke-linecap="round" stroke-linejoin="round" stroke-width=".556877"/><path d="m335.809 122.951c.111 0 .278-.012.433-.012" stroke-linecap="round" stroke-linejoin="round" stroke-width=".556877"/><path d="m336.265 132.753c-.156 0-.322 0-.433-.011" stroke-linecap="round" stroke-linejoin="round" stroke-width=".556877"/><path d="m333.949 123.152 1.86-.189" stroke-linecap="round" stroke-linejoin="round" stroke-width=".556877"/><path d="m335.809 132.73-1.86-.189" stroke-linecap="round" stroke-linejoin="round" stroke-width=".556877"/><path d="m332.301 125.178c0-.167.022-.356.078-.568.055-.2.156-.434.289-.657.145-.223.334-.412.579-.568.112-.078.245-.145.368-.178.134-.045.234-.067.334-.078" stroke-linecap="round" stroke-linejoin="round" stroke-width=".556877"/><path d="m332.301 130.502c-.011-2.038 0-3.809 0-5.313" stroke-linecap="round" stroke-linejoin="round" stroke-width=".556877"/><path d="m333.949 132.541c-.278-.023-.501-.123-.702-.256-.2-.123-.356-.279-.501-.479-.145-.201-.245-.401-.312-.602-.066-.2-.111-.423-.111-.69" stroke-linecap="round" stroke-linejoin="round" stroke-width=".556877"/><path d="m335.72 147.479c-.045-.156-.089-.323-.134-.49-.033-.167-.1-.334-.156-.49-.055-.156-.111-.323-.178-.479s-.122-.323-.2-.479-.156-.312-.245-.457c-.089-.156-.179-.312-.268-.445" stroke-linecap="round" stroke-linejoin="round" stroke-width=".556877"/><path d="m335.72 147.477c.178.735.256 1.459.256 2.194" stroke-linecap="round" stroke-linejoin="round" stroke-width=".556877"/><path d="m334.517 144.648c-.579-.924-1.158-1.815-1.693-2.695" stroke-linecap="round" stroke-linejoin="round" stroke-width=".556877"/><path d="m335.976 149.672v32.31" stroke-linecap="round" stroke-linejoin="round" stroke-width=".556877"/><path d="m331.009 135.671v-26.597" stroke-linecap="round" stroke-linejoin="round" stroke-width=".556877"/><path d="m332.824 141.953c-.434-.679-.746-1.336-.991-1.949-.245-.612-.412-1.191-.523-1.704-.234-1.035-.29-1.882-.29-2.628" stroke-linecap="round" stroke-linejoin="round" stroke-width=".556877"/><path d="m334.762 102.023c.067-.089.145-.178.201-.256.067-.089.133-.178.178-.278.067-.101.111-.179.167-.279s.1-.189.156-.289c.056-.101.089-.201.134-.312.033-.101.077-.201.1-.312" stroke-linecap="round" stroke-linejoin="round" stroke-width=".556877"/><path d="m335.976 98.6953c0 .5123-.078 1.0469-.256 1.6037" stroke-linecap="round" stroke-linejoin="round" stroke-width=".556877"/><path d="m332.657 104.518c.724-.858 1.415-1.693 2.094-2.506" stroke-linecap="round" stroke-linejoin="round" stroke-width=".556877"/><path d="m331.009 109.072c0-.167 0-.334.011-.501s.022-.334.056-.501c.022-.167.055-.323.089-.49.044-.167.078-.323.111-.479.034-.156.089-.312.156-.446.089-.256.2-.512.334-.768s.256-.49.412-.713.323-.445.49-.668" stroke-linecap="round" stroke-linejoin="round" stroke-width=".556877"/><path d="m335.976 73.6992v24.9815" stroke-linecap="round" stroke-linejoin="round" stroke-width=".556877"/><path d="m335.731 92.4023c-.145.5012-.367 1.0693-.701 1.693" stroke-linecap="round" stroke-linejoin="round" stroke-width=".556877"/><path d="m335.03 94.1055c-.323.5791-.624 1.1694-.936 1.7486" stroke-linecap="round" stroke-linejoin="round" stroke-width=".556877"/><path d="m335.72 92.4794v-.0673" stroke-linecap="round" stroke-linejoin="round" stroke-width=".556877"/><path d="m339.351 131.35v-6.995" stroke-linecap="round" stroke-linejoin="round" stroke-width=".556877"/><path d="m339.351 124.344c0-.089 0-.156-.023-.245-.022-.089-.033-.156-.066-.234-.034-.078-.067-.156-.101-.222" stroke-linecap="round" stroke-linejoin="round" stroke-width=".556877"/><path d="m339.172 123.64-.1-.189" stroke-linecap="round" stroke-linejoin="round" stroke-width=".556877"/><path d="m338.382 122.906c.067.023.2.089.267.112.067.044.112.078.178.133.056.034.101.089.145.145.034.045.078.089.112.145" stroke-linecap="round" stroke-linejoin="round" stroke-width=".556877"/><path d="m339.072 132.23s-.089.112-.144.179c-.067.066-.112.111-.179.167-.078.055-.289.156-.367.189" stroke-linecap="round" stroke-linejoin="round" stroke-width=".556877"/><path d="m339.072 132.227.089-.2" stroke-linecap="round" stroke-linejoin="round" stroke-width=".556877"/><path d="m339.173 132.038c.033-.078.078-.145.1-.223s.056-.156.067-.234c0-.078.011-.156.022-.245" stroke-linecap="round" stroke-linejoin="round" stroke-width=".556877"/><path d="m336.576 122.783h-.01" stroke-linecap="round" stroke-linejoin="round" stroke-width=".556877"/><path d="m336.566 132.896h.022" stroke-linecap="round" stroke-linejoin="round" stroke-width=".556877"/><path d="m336.566 122.795v-50.297" stroke-linecap="round" stroke-linejoin="round" stroke-width=".556877"/><path d="m336.566 183.193v-50.308" stroke-linecap="round" stroke-linejoin="round" stroke-width=".556877"/><path d="m303.41 101.136 3.442-.134" stroke-linecap="round" stroke-linejoin="round" stroke-width=".556877"/><path d="m289.889 143.334.624 3.731" stroke-linecap="round" stroke-linejoin="round" stroke-width=".556877"/><path d="m290.546 147.154c.334 1.203.668 2.417 1.158 3.564.424.992.958 1.949 1.638 2.796.623.791 1.37 1.515 2.205 2.094.668.479 1.414.868 2.183 1.191.846.357 1.715.635 2.606.813.601.112 1.225.19 1.827.268" stroke-linecap="round" stroke-linejoin="round" stroke-width=".556877"/><path d="m290.524 147.053.022.088" stroke-linecap="round" stroke-linejoin="round" stroke-width=".556877"/><path d="m248.268 121.09c.601-.067 1.192-.134 1.838-.334s1.336-.546 2.027-1.002c.701-.446 1.425-.992 2.138-1.626.724-.646 1.448-1.382 2.183-2.195.724-.801 1.437-1.704 2.116-2.661.691-.958 1.359-1.972 1.994-3.052.646-1.069 1.236-2.172 1.782-3.308.557-1.147 1.069-2.283 1.503-3.441.446-1.159.847-2.306 1.17-3.442.323-1.1471.59-2.2386.791-3.3078.2-1.0692.323-2.0938.389-3.0517.067-.9578.034-1.8488-.055-2.673s-.245-1.5481-.479-2.1941c-.234-.6459-.524-1.1917-.869-1.6261-.345-.4455-.768-.7907-1.247-1.0023-.479-.2005-1.025-.2673-1.582-.3342" stroke-linecap="round" stroke-linejoin="round" stroke-width=".556877"/><path d="m248.402 117.718c.501-.067.991-.112 1.526-.279.523-.178 1.125-.479 1.715-.857.59-.39 1.192-.824 1.793-1.359s1.203-1.136 1.804-1.815c.602-.68 1.192-1.426 1.76-2.217.579-.813 1.147-1.67 1.671-2.55.523-.902 1.035-1.838 1.503-2.796.457-.958.88-1.916 1.27-2.873.367-.958.69-1.927.958-2.874.267-.9354.49-1.8709.657-2.7731.156-.9021.267-1.7374.312-2.5393.033-.7908.033-1.5259-.034-2.1941-.067-.6683-.2-1.2808-.39-1.8043-.178-.5235-.434-.9912-.735-1.3588-.289-.3898-.657-.6905-1.047-.8687-.4-.1782-.857-.2339-1.303-.2785" stroke-linecap="round" stroke-linejoin="round" stroke-width=".556877"/><path d="m258.871 90.7637c.501.0891.991.167 1.403.4232.413.2562.747.6905 1.003 1.2363.256.5568.423 1.1805.501 1.9268.078.7462.067 1.6038-.022 2.517-.089.9244-.279 1.938-.557 2.9738-.267 1.0362-.602 2.0942-1.025 3.1742-.423 1.069-.902 2.127-1.436 3.152-.535 1.025-1.125 2.027-1.76 2.951-.624.925-1.259 1.749-1.927 2.484-.657.746-1.325 1.381-1.994 1.927-.668.534-1.347.991-1.96 1.247-.612.256-1.169.345-1.726.423" stroke-linecap="round" stroke-linejoin="round" stroke-width=".556877"/><path d="m258.871 90.7637c-.568.0891-1.114.167-1.726.4232-.602.2562-1.27.6794-1.938 1.214s-1.337 1.1806-2.005 1.9379c-.668.7574-1.325 1.6038-1.949 2.5394-.624.9244-1.214 1.9268-1.76 2.9514-.534 1.0244-1.024 2.0934-1.436 3.1524-.412 1.069-.758 2.127-1.014 3.151-.256 1.025-.445 2.016-.535 2.952-.089.924-.1 1.782-.022 2.539.089.746.256 1.404.501 1.938.257.535.58.958.992 1.214s.902.334 1.403.423" stroke-linecap="round" stroke-linejoin="round" stroke-width=".556877"/><path d="m248.402 117.729c-.446-.067-.914-.111-1.303-.279-.401-.167-.747-.478-1.036-.846-.312-.39-.557-.824-.746-1.359-.19-.534-.335-1.147-.401-1.826-.067-.68-.09-1.437-.034-2.228s.156-1.659.323-2.55c.156-.902.368-1.827.657-2.762.279-.936.602-1.916.98-2.874.39-.958.791-1.927 1.259-2.873.457-.936.98-1.8715 1.503-2.7625.524-.9022 1.092-1.7486 1.671-2.5505.579-.7908 1.17-1.5481 1.782-2.2275.602-.6794 1.203-1.292 1.827-1.8266.601-.5234 1.203-.9912 1.793-1.3588.59-.3675 1.158-.6682 1.704-.8464.534-.1782 1.036-.2339 1.526-.2785" stroke-linecap="round" stroke-linejoin="round" stroke-width=".556877"/><path d="m316.998 111.802v-14.679" stroke-linecap="round" stroke-linejoin="round" stroke-width=".556877"/><path d="m306.852 101.001c.401-.134.79-.257 1.18-.335.757-.144 1.515-.066 2.194.09.691.155 1.326.4 1.882.746.568.345 1.07.768 1.526 1.281.446.512.847 1.091 1.192 1.748.356.657.657 1.359.924 2.116.268.769.513 1.582.713 2.451.201.868.357 1.793.524 2.728" stroke-linecap="round" stroke-linejoin="round" stroke-width=".556877"/><path d="m313.445 182.459c0 .145 0-.056 0-.345v-1.114" stroke-linecap="round" stroke-linejoin="round" stroke-width=".556877"/><path d="m301.183 169.406v-.523" stroke-linecap="round" stroke-linejoin="round" stroke-width=".556877"/><path d="m301.183 169.518v-.657" stroke-linecap="round" stroke-linejoin="round" stroke-width=".556877"/><path d="m335.775 92.3008v.0442l-.044.0774" stroke-linecap="round" stroke-linejoin="round" stroke-width=".556877"/><path d="m338.382 132.764h-2.116" stroke-linecap="round" stroke-linejoin="round" stroke-width=".556877"/><path d="m336.266 122.929 2.116-.023" stroke-linecap="round" stroke-linejoin="round" stroke-width=".556877"/><path d="m335.731 92.4023c.089-.2673.167-.5346.201-.7907v-.1448" stroke-linecap="round" stroke-linejoin="round" stroke-width=".556877"/><path d="m334.094 95.8418-.412.9578" stroke-linecap="round" stroke-linejoin="round" stroke-width=".556877"/><path d="m335.809 92.2441s-.022.0111-.033.0222c-.045.0333-.045.0887-.056.1441" stroke-linecap="round" stroke-linejoin="round" stroke-width=".556877"/><path d="m359.688 179.384v-103.0891" stroke-linecap="round" stroke-linejoin="round" stroke-width=".556877"/><path d="m335.775 92.3008v.0442l-.044.0774" stroke-linecap="round" stroke-linejoin="round" stroke-width=".556877"/><path d="m259.528 92.6348.902.1782" stroke-linecap="round" stroke-linejoin="round" stroke-width=".556877"/><path d="m261.978 85.8301c-.479.0557-.947.1002-1.459.2227-.501.1114-1.069.3119-1.637.6683-.056.0445-.089.0668-.145.0891" stroke-linecap="round" stroke-linejoin="round" stroke-width=".556877"/><path d="m244.214 116.48c.011.19.033.39.056.58.111.924.423 1.592.79 2.171.368.58.824 1.07 1.348 1.404.267.167.557.278.869.356s.657.1.991.123" stroke-linecap="round" stroke-linejoin="round" stroke-width=".556877"/><path d="m250.039 114.242c-.267-.178-.524-.345-.746-.601-.223-.256-.412-.602-.557-1.014-.145-.401-.234-.846-.29-1.359-.067-.512-.067-1.069-.022-1.659.033-.601.1-1.236.234-1.882.133-.657.278-1.348.49-2.038.2-.691.445-1.415.724-2.128.278-.713.59-1.436.935-2.127.346-.691.713-1.381 1.103-2.0382.39-.6571.813-1.2919 1.236-1.8822s.869-1.1583 1.303-1.6595c.446-.5012.902-.9578 1.348-1.3588.445-.4009.902-.7351 1.336-1.0135.435-.2784.858-.5012 1.259-.6348.401-.1337.768-.1671 1.147-.2005" stroke-linecap="round" stroke-linejoin="round" stroke-width=".556877"/><path d="m359.688 179.386c2.383-15.525 3.664-31.196 3.864-46.9" stroke-linecap="round" stroke-linejoin="round" stroke-width=".556877"/><path d="m340.375 68.3457-1.091.0557" stroke-linecap="round" stroke-linejoin="round" stroke-width=".556877"/><path d="m339.295 68.3887c-.312.0111-.601.1225-.847.3341" stroke-linecap="round" stroke-linejoin="round" stroke-width=".556877"/><path d="m363.363 111.402c.134.067.234.167.323.312.101.156.19.357.268.579.089.257.156.557.222.902.067.39.134.791.167 1.259.056.512.101 1.092.145 1.704.045.668.078 1.392.1 2.183.045.846.067 1.771.09 2.695 0 .39.033.813.033 1.136s0 .691.011 1.047v9.244c0 .357 0 .702-.011 1.047 0 .346-.011.691-.022 1.081-.011.601-.056 1.281-.078 1.871-.011.546-.034 1.069-.067 1.559-.045.913-.1 1.749-.156 2.473-.056.646-.111 1.202-.178 1.704-.067.412-.123.768-.201 1.08-.067.245-.145.445-.234.624-.066.133-.144.234-.245.312-.066.055-.2.122-.311.122" stroke-linecap="round" stroke-linejoin="round" stroke-width="1.11375"/><path d="m301.684 96.1758s-.078-.1113-.112-.167c-.523-.724-1.113-1.4034-1.704-2.0605-.601-.6682-1.225-1.3031-1.871-1.9268-.713-.6794-1.459-1.3365-2.25-1.949-.768-.6015-1.548-1.1806-2.372-1.7264-.824-.5568-1.626-1.0246-2.484-1.4924-.846-.4678-1.692-.8687-2.561-1.2585-.869-.3787-1.749-.7128-2.629-1.0247-.902-.3118-1.77-.568-2.684-.7908-.902-.2338-1.793-.4232-2.706-.568-.913-.1447-1.793-.2561-2.707-.3452-.913-.0891-1.793-.1559-2.695-.1337-.078 0-1.626.0669-1.704.0669" stroke-linecap="round" stroke-linejoin="round" stroke-width="1.11375"/><path d="m244.192 116.49c.033.29.089.591.134.88.144.847.345 1.693.579 2.528.234.836.49 1.682.779 2.495.29.824.624 1.648.992 2.439.356.791.757 1.604 1.18 2.373.423.768.88 1.537 1.37 2.283s1.014 1.47 1.548 2.172c.535.701 1.114 1.381 1.726 2.038.602.657 1.237 1.292 1.883 1.915.724.68 1.47 1.326 2.25 1.927.768.602 1.57 1.17 2.383 1.704.824.535 1.637 1.014 2.484 1.481.846.446 1.704.869 2.572 1.248.869.367 1.749.702 2.629 1.013.902.312 1.771.546 2.684.78.902.234 1.793.412 2.706.557.914.156 1.794.267 2.707.334.568.045 1.147.056 1.704.067" stroke-linecap="round" stroke-linejoin="round" stroke-width="1.11375"/><path d="m273.194 82.8105c-.446.0112-.914.0223-1.37.0669-.869.0668-1.726.1782-2.595.3341-.858.1559-1.693.323-2.54.5235-.824.2004-1.637.4343-2.45.7016s-1.581.5569-2.35.8688c-.768.3229-1.515.6571-2.227 1.0357-.312.156-.602.3342-.902.5012" stroke-linecap="round" stroke-linejoin="round" stroke-width="1.11375"/><path d="m247.667 99.8301c-.312.6569-.624 1.3139-.902 1.9709-.112.268-.234.535-.334.791-.179.446-.357.88-.513 1.337-.156.445-.323.913-.479 1.358-.156.479-.311.958-.434 1.437-.134.479-.256.98-.368 1.459-.1.479-.2.98-.311 1.459-.089.479-.156.958-.223 1.437s-.1.936-.134 1.414c-.033.457-.033.925-.033 1.37 0 .446.022.869.067 1.315.022.267.055.534.089.824.011.133.033.245.055.39 0 .066.012.111.023.167 0 .022 0 .066.011.089" stroke-linecap="round" stroke-linejoin="round" stroke-width="1.11375"/><path d="m258.815 86.7773s-.067.0446-.089.0557c-.033.0223-.078.0446-.134.0669-.089.0556-.167.0891-.256.1448-.234.1336-.434.2561-.646.3898-.423.2673-.813.5346-1.191.8353-.379.3007-.758.6014-1.125.9244-.368.3341-.746.6682-1.103 1.0358-.356.3564-.735.7685-1.091 1.1694-.357.401-.724.8242-1.07 1.2697-.345.4455-.668.8687-1.002 1.3365-.312.4232-.601.8687-.902 1.3142-.267.4121-.524.8242-.78 1.2474-.2.3342-.401.6683-.601 1.0135-.234.401-.446.7908-.657 1.2029-.178.3453-.357.6905-.524 1.0358" stroke-linecap="round" stroke-linejoin="round" stroke-width="1.11375"/><path d="m277.794 144.749 1.281-.134 1.358-.356 1.437-.602 1.47-.835 1.526-1.069 1.548-1.281 1.571-1.492 1.57-1.671 1.537-1.849 1.515-2.005 1.459-2.127 1.414-2.261 1.325-2.339 1.237-2.405 1.147-2.462 1.025-2.483.913-2.484.768-2.461.646-2.406.501-2.339.346-2.261.189-2.127.033-2.005-.111-1.849-.256-1.6704-.412-1.4702-.568-1.2808-.579-.9133" stroke-linecap="round" stroke-linejoin="round" stroke-width="1.11375"/><path d="m276.502 144.715 1.303.044" stroke-linecap="round" stroke-linejoin="round" stroke-width="1.11375"/><path d="m316.942 180.342.602.089" stroke-linecap="round" stroke-linejoin="round" stroke-width="1.11375"/><path d="m296.549 156.229v13.977c0 1.192 0 2.339.034 3.464.022 1.036.2 3.497.256 4.511" stroke-linecap="round" stroke-linejoin="round" stroke-width="1.11375"/><path d="m333.671 96.8008-14.524.1336" stroke-linecap="round" stroke-linejoin="round" stroke-width="1.11375"/><path d="m319.203 96.9316-2.216.156" stroke-linecap="round" stroke-linejoin="round" stroke-width="1.11375"/><path d="m317.143 97.0547c-1.159.1559-2.306.323-3.442.5457-1.125.2339-2.261.5123-3.375.8576-1.113.3453-2.205.7574-3.218 1.3365-.624.3565-1.292.8575-1.871 1.2695" stroke-linecap="round" stroke-linejoin="round" stroke-width="1.11375"/><path d="m319.136 180.531 15.927.123" stroke-linecap="round" stroke-linejoin="round" stroke-width="1.11375"/><path d="m335.018 180.668c.089 0 .869.044.958.011" stroke-linecap="round" stroke-linejoin="round" stroke-width="1.11375"/><path d="m317.566 180.443c.234.023.446.056.68.067.345.022.69.022 1.035.022" stroke-linecap="round" stroke-linejoin="round" stroke-width="1.11375"/><path d="m316.942 180.342.602.089" stroke-linecap="round" stroke-linejoin="round" stroke-width="1.11375"/><path d="m296.85 178.182c.056.59.111 1.191.189 1.759.145.992.357 1.883.658 2.729.178.524.401 1.036.646 1.504.245.456.512.902.857 1.303.156.178.323.367.524.568.178.156.367.334.623.512.201.156.446.312.713.457.256.144.557.278.835.412.323.145.669.256 1.014.356.401.112.824.201 1.247.256.479.067.958.089 1.437.067.557-.011 1.114-.089 1.66-.223.668-.156 1.314-.389 1.926-.701.735-.368 1.415-.836 2.016-1.381.334-.312.657-.657.947-1.014.312-.39.601-.813.824-1.258.178-.346.312-.702.468-1.07" stroke-linecap="round" stroke-linejoin="round" stroke-width="1.11375"/><path d="m313.445 182.491c.156-.334.323-.657.534-.946.234-.312.535-.546.869-.747.334-.2.691-.345 1.069-.412.357-.067.713-.033 1.081-.022" stroke-linecap="round" stroke-linejoin="round" stroke-width="1.11375"/><path d="m335.976 181.98c0 .368.279.68.657.702" stroke-linecap="round" stroke-linejoin="round" stroke-width="1.11375"/><path d="m335.976 73.7c0-.3452.256-.646.591-.6905v-.2673" stroke-linecap="round" stroke-linejoin="round" stroke-width="1.11375"/><path d="m335.954 91.2988-.089.6015" stroke-linecap="round" stroke-linejoin="round" stroke-width="1.11375"/><path d="m335.03 94.0586-.947 1.7709" stroke-linecap="round" stroke-linejoin="round" stroke-width="1.11375"/><path d="m334.094 95.7969-.423 1.0023" stroke-linecap="round" stroke-linejoin="round" stroke-width="1.11375"/><path d="m339.295 187.281 1.092.056" stroke-linecap="round" stroke-linejoin="round" stroke-width="1.11375"/><path d="m338.449 186.957c.234.201.534.323.846.334" stroke-linecap="round" stroke-linejoin="round" stroke-width="1.11375"/><path d="m337.224 185.934 1.225 1.013" stroke-linecap="round" stroke-linejoin="round" stroke-width="1.11375"/><path d="m336.722 70.6934-.156 1.7931" stroke-linecap="round" stroke-linejoin="round" stroke-width="1.11375"/><path d="m336.634 182.682.1 2.294" stroke-linecap="round" stroke-linejoin="round" stroke-width="1.11375"/><path d="m336.722 184.975c.045.367.223.712.501.957" stroke-linecap="round" stroke-linejoin="round" stroke-width="1.11375"/><path d="m356.937 182.461c1.448-.39 2.528-1.593 2.762-3.074" stroke-linecap="round" stroke-linejoin="round" stroke-width="1.11375"/><path d="m359.688 76.2855c-.234-1.4702-1.303-2.6842-2.762-3.0628" stroke-linecap="round" stroke-linejoin="round" stroke-width="1.11375"/><path d="m363.185 111.322c-.557-11.7608-1.715-23.3995-3.497-35.0271" stroke-linecap="round" stroke-linejoin="round" stroke-width="1.11375"/><path d="m287.651 141.875c.412.189.824.401 1.147.579.345.189.612.39.791.579.189.201.289.424.278.312" stroke-linecap="round" stroke-linejoin="round" stroke-width="1.11375"/><path d="m285.835 140.992 1.827.891" stroke-linecap="round" stroke-linejoin="round" stroke-width="1.11375"/><path d="m287.651 141.875c.412.189.824.401 1.147.579.345.189.612.39.791.579.189.201.289.424.278.312" stroke-linecap="round" stroke-linejoin="round" stroke-width="1.11375"/><path d="m313.445 182.426v.033" stroke-linecap="round" stroke-linejoin="round" stroke-width="1.11375"/><path d="m335.976 180.668v1.314" stroke-linecap="round" stroke-linejoin="round" stroke-width="1.11375"/><path d="m335.976 73.6992-.022 17.5862" stroke-linecap="round" stroke-linejoin="round" stroke-width="1.11375"/><path d="m335.731 92.4121c-.145.5012-.367 1.0692-.701 1.6929" stroke-linecap="round" stroke-linejoin="round" stroke-width="1.11375"/><path d="m335.03 94.1055c-.323.5791-.624 1.1694-.936 1.7486" stroke-linecap="round" stroke-linejoin="round" stroke-width="1.11375"/><path d="m335.72 92.4794v-.0673" stroke-linecap="round" stroke-linejoin="round" stroke-width="1.11375"/><path d="m356.937 185.844c0 .434-.312.824-.724.913-.802.189-1.604.368-2.339.557-.746.178-1.447.334-2.127.49-1.359.312-2.606.568-3.787.791-1.18.234-2.272.434-3.352.601-1.08.178-2.127.323-3.174.446h-.112c-.523 0-.946-.424-.946-.947" stroke-linecap="round" stroke-linejoin="round" stroke-width="1.11375"/><path d="m356.937 69.8242v3.3858" stroke-linecap="round" stroke-linejoin="round" stroke-width="1.11375"/><path d="m340.376 188.729v-1.27" stroke-linecap="round" stroke-linejoin="round" stroke-width="1.11375"/><path d="m303.41 101.133 1.827-.078" stroke-linecap="round" stroke-linejoin="round" stroke-width="1.11375"/><path d="m289.889 143.32.624 3.731" stroke-linecap="round" stroke-linejoin="round" stroke-width="1.11375"/><path d="m290.546 147.152c.334 1.203.668 2.417 1.158 3.564.424.992.958 1.949 1.638 2.796.623.791 2.383 2.138 3.218 2.729" stroke-linecap="round" stroke-linejoin="round" stroke-width="1.11375"/><path d="m290.524 147.051.022.088" stroke-linecap="round" stroke-linejoin="round" stroke-width="1.11375"/><path d="m335.775 92.2988v.0443l-.044.0774" stroke-linecap="round" stroke-linejoin="round" stroke-width="1.11375"/><path d="m335.731 92.4004c.089-.2673.167-.5346.201-.7908v-.1448" stroke-linecap="round" stroke-linejoin="round" stroke-width="1.11375"/><path d="m334.094 95.8418-.412.9578" stroke-linecap="round" stroke-linejoin="round" stroke-width="1.11375"/><path d="m335.809 92.2441s-.022.0111-.033.0222c-.045.0333-.045.0887-.056.1441" stroke-linecap="round" stroke-linejoin="round" stroke-width="1.11375"/><path d="m335.775 92.2988v.0443l-.044.0774" stroke-linecap="round" stroke-linejoin="round" stroke-width="1.11375"/><path d="m359.688 179.394c1.759-11.505 2.929-23.645 3.486-35.039" stroke-linecap="round" stroke-linejoin="round" stroke-width="1.11375"/><path d="m356.937 182.459v3.386" stroke-linecap="round" stroke-linejoin="round" stroke-width="1.11375"/><path d="m340.376 68.3438-1.092.0556" stroke-linecap="round" stroke-linejoin="round" stroke-width="1.11375"/><path d="m339.295 68.3887c-.312.0111-.601.1336-.846.3341l-1.203 1.0135c-.279.245-.479.5903-.501.9578" stroke-linecap="round" stroke-linejoin="round" stroke-width="1.11375"/><path d="m340.376 68.3873v-1.4478" stroke-linecap="round" stroke-linejoin="round" stroke-width="1.11375"/><path d="m340.376 187.336v1.403c0 .523.423.947.946.947h.112c1.047-.134 2.105-.279 3.163-.446 1.069-.178 2.172-.367 3.352-.601 1.181-.234 2.428-.501 3.787-.791.679-.156 1.381-.312 2.127-.49s1.537-.356 2.339-.546c.423-.1.735-.479.735-.924v-3.386" stroke-linecap="round" stroke-linejoin="round" stroke-width="1.11375"/><path d="m340.376 66.9411v-.1114c.067-.5123.534-.8798 1.047-.8241 1.047.1336 2.105.2784 3.174.4455 1.069.1782 2.172.3675 3.352.6014 1.181.2339 2.428.5012 3.787.7908.679.1559 1.381.3118 2.127.49s1.537.3564 2.339.5458c.423.1002.724.4789.724.9244" stroke-linecap="round" stroke-linejoin="round" stroke-width="1.11375"/><path d="m340.409 187.803v-120.8534c.067-.5123.535-.8687 1.047-.813 1.047.1336 2.105.2673 3.174.4455s2.172.3675 3.352.6014c1.181.2339 2.428.4901 3.776.7908.668.1559 1.381.3118 2.127.49.747.1782 1.537.3564 2.339.5458.423.1002.713.4789.713.9133v115.8416c0 .434-.312.813-.713.913-.813.189-1.592.368-2.339.546-.746.178-1.448.334-2.127.49-1.359.289-2.606.568-3.776.791-1.18.234-2.272.423-3.352.601s-2.127.323-3.174.446h-.112c-.523 0-.935-.413-.935-.936v-.835z" stroke-width="1.11375"/></g><path d="m363.196 144.334c.19-3.887.312-7.952.357-11.85 0-.468.011-.936.011-1.415v-2.539h-1.66v-2.517c0-.836 0-1.693.023-2.529 0-.924.022-1.837.033-2.706s.045-1.771.067-2.584c.022-.824.067-1.548.089-2.239.022-.69.067-1.369.111-1.96.045-.59.078-1.091.112-1.526.033-.434.089-.824.122-1.113l.602-.034c.089 0 .178.023.256.067.133.067.234.167.323.312.1.156.189.356.267.579.089.256.156.557.223.902.067.39.122.791.167 1.259.056.512.1 1.091.145 1.704.033.679.078 1.403.1 2.183.033.846.067 1.771.089 2.695 0 .39.045.802.045 1.136s0 .691.011 1.047v9.244c0 .357 0 .702-.011 1.047 0 .345-.012.691-.023 1.08-.011.602-.055 1.281-.078 1.872-.011.556-.044 1.069-.067 1.559-.033.913-.1 1.748-.155 2.483-.056.646-.112 1.203-.179 1.704-.066.413-.133.769-.2 1.081-.067.245-.145.445-.234.624-.067.122-.145.233-.245.311-.067.056-.201.134-.312.134v-.022h-.011z" fill="#171717"/><path d="m339.084 130.001c-.011.178-.045.367-.101.557-.066.178-.178.334-.311.445-.067.067-.145.123-.223.178-.078.067-.156.089-.234.123-.089.033-.167.067-.256.078s-.178.011-.279.022h-2.439c-.089 0-.178-.011-.267-.033-.089-.012-.178-.056-.256-.078v-2.05-4.822c.078-.089.178-.1.256-.112.089-.011.178-.022.267-.022h2.439c.179.011.368.045.557.1.178.067.334.179.457.312.067.067.134.145.178.223.056.078.089.156.134.234.044.089.067.167.078.256s.022.178.022.278v4.311z" fill="#171717"/><path d="m364.098 112.892c.769-1.626.669 15.882.669 16.829 0 .167-1.504 0-1.504 0" fill="#171717"/><path d="m244.549 214.227h120.352" stroke="#171717" stroke-linecap="square" stroke-linejoin="round" stroke-width="1.11375"/><path d="m244.549 210.629v7.206" stroke="#171717" stroke-linecap="square" stroke-linejoin="round" stroke-width="1.11375"/><path d="m364.901 210.605v7.206" stroke="#171717" stroke-linecap="square" stroke-linejoin="round" stroke-width="1.11375"/><path d="m405.802 136.082-2.51 1.263v-1.388l2.791-1.481h1.2v10.915h-1.481zm6.817 9.433c-.686 0-1.294-.119-1.824-.358-.52-.239-.925-.572-1.216-.998-.281-.437-.421-.936-.421-1.497v-.561c0-.479.14-.915.421-1.31.291-.406.696-.738 1.216-.998v-.016c-.406-.239-.723-.54-.951-.904-.219-.374-.328-.769-.328-1.185v-.655c0-.8.296-1.445.889-1.933.603-.499 1.393-.749 2.37-.749h1.341c.645 0 1.211.114 1.7.343.488.218.868.53 1.138.936.27.405.405.873.405 1.403v.655c0 .426-.109.821-.327 1.185-.218.353-.536.655-.951.904v.016c.519.249.92.577 1.2.982.291.395.437.837.437 1.326v.561c0 .561-.146 1.06-.437 1.497-.28.426-.681.759-1.2.998-.52.239-1.123.358-1.809.358zm1.497-6.346c.52 0 .941-.135 1.263-.405.333-.27.499-.629.499-1.076v-.639c0-.416-.161-.749-.483-.998-.323-.26-.749-.39-1.279-.39h-1.341c-.53 0-.961.13-1.294.39-.322.249-.483.582-.483.998v.639c0 .447.161.806.483 1.076.333.27.764.405 1.294.405zm.156 5.037c.582 0 1.055-.141 1.419-.421.364-.291.546-.676.546-1.154v-.515c0-.499-.198-.899-.593-1.2-.385-.312-.894-.468-1.528-.468h-1.341c-.634 0-1.149.156-1.544.468-.395.301-.592.701-.592 1.2v.515c0 .478.182.863.546 1.154.363.28.842.421 1.434.421zm13.813-6.721c.718 0 1.289.234 1.716.702.426.457.639 1.086.639 1.887v5.317h-1.45v-5.333c0-.395-.094-.707-.281-.936-.187-.239-.431-.358-.733-.358h-.81c-.395 0-.728.14-.998.421-.26.27-.427.644-.499 1.122v5.084h-1.466v-5.271c0-.426-.088-.758-.265-.998-.166-.239-.395-.358-.686-.358h-.795c-.395 0-.738.171-1.03.514-.291.333-.473.775-.545 1.326v4.787h-1.45v-7.781h1.387v1.045c.208-.364.463-.65.764-.858.312-.208.629-.312.952-.312h.904c.416 0 .774.104 1.076.312.312.208.556.504.733.889.228-.395.509-.691.842-.889.332-.208.691-.312 1.076-.312zm13.096 0c.717 0 1.289.234 1.715.702.426.457.639 1.086.639 1.887v5.317h-1.45v-5.333c0-.395-.093-.707-.281-.936-.187-.239-.431-.358-.732-.358h-.811c-.395 0-.728.14-.998.421-.26.27-.426.644-.499 1.122v5.084h-1.466v-5.271c0-.426-.088-.758-.265-.998-.166-.239-.395-.358-.686-.358h-.795c-.395 0-.738.171-1.029.514-.291.333-.473.775-.546 1.326v4.787h-1.45v-7.781h1.388v1.045c.208-.364.462-.65.764-.858.312-.208.629-.312.951-.312h.904c.416 0 .775.104 1.076.312.312.208.556.504.733.889.229-.395.509-.691.842-.889.333-.208.691-.312 1.076-.312z" fill="#171717"/><path d="m391.686 181.911v-83.0633" stroke="#171717" stroke-linecap="square" stroke-linejoin="round" stroke-width="1.11375"/><path d="m388.077 181.912h7.206" stroke="#171717" stroke-linecap="square" stroke-linejoin="round" stroke-width="1.11375"/><path d="m388.077 98.8379h7.206" stroke="#171717" stroke-linecap="square" stroke-linejoin="round" stroke-width="1.11375"/><path d="m277.056 236.93c0-.592.104-1.107.312-1.543.218-.437.572-.822 1.06-1.154l3.867-2.729c.24-.166.421-.359.546-.577.135-.229.203-.462.203-.702v-.499c0-.395-.135-.712-.406-.951-.27-.239-.634-.358-1.091-.358h-1.435c-.498 0-.899.176-1.2.53-.291.343-.437.816-.437 1.419h-1.481c0-1.009.275-1.804.826-2.386.562-.592 1.315-.889 2.261-.889h1.466c.894 0 1.611.245 2.152.733.551.478.826 1.112.826 1.902v.499c0 .946-.436 1.716-1.31 2.308l-3.757 2.588c-.333.229-.572.468-.718.718-.135.249-.202.577-.202.982h6.112v1.31h-7.594zm11.982 1.326c-.946 0-1.699-.281-2.261-.842-.561-.562-.842-1.315-.842-2.261h1.45c0 .54.151.972.452 1.294.302.322.702.483 1.201.483h1.497c.551 0 .998-.161 1.341-.483s.515-.749.515-1.279v-.92c0-.488-.177-.883-.531-1.185-.343-.301-.8-.452-1.372-.452h-4.163v-5.395h7.141v1.325h-5.66v2.76h2.682c1.019 0 1.835.271 2.448.811.624.53.936 1.242.936 2.136v.92c0 .614-.141 1.154-.421 1.622-.27.468-.66.832-1.17 1.091-.499.25-1.081.375-1.746.375zm7.107.031c-.291 0-.53-.089-.717-.265-.177-.187-.265-.426-.265-.718 0-.291.088-.53.265-.717.187-.187.426-.28.717-.28.302 0 .541.093.717.28.188.177.281.416.281.717 0 .292-.093.531-.281.718-.187.176-.426.265-.717.265zm8.747-5.769c.447.228.795.535 1.044.92.26.374.39.795.39 1.262v.624c0 .582-.135 1.097-.405 1.544-.271.436-.655.779-1.154 1.029-.499.239-1.076.359-1.731.359h-1.512c-.978 0-1.762-.297-2.355-.889-.582-.603-.873-1.409-.873-2.417h1.45c0 .603.161 1.086.483 1.45.323.354.754.53 1.295.53h1.512c.541 0 .977-.145 1.31-.436.332-.291.499-.681.499-1.17v-.624c0-.488-.167-.862-.499-1.122-.322-.26-.775-.39-1.357-.39h-1.762v-1.279h1.762c.52 0 .925-.13 1.217-.389.291-.26.436-.624.436-1.092v-.624c0-.426-.145-.764-.436-1.013-.281-.25-.661-.374-1.139-.374h-1.512c-.51 0-.92.182-1.232.545-.301.354-.452.832-.452 1.435h-1.497c0-1.008.286-1.809.857-2.401.583-.603 1.357-.905 2.324-.905h1.512c.925 0 1.663.25 2.214.749.562.488.842 1.143.842 1.964v.624c0 .437-.109.842-.327 1.216-.218.364-.52.655-.904.874zm11.86-2.293c.717 0 1.289.234 1.715.702.426.457.639 1.086.639 1.887v5.317h-1.45v-5.333c0-.395-.093-.707-.281-.935-.187-.239-.431-.359-.732-.359h-.811c-.395 0-.728.14-.998.421-.26.27-.426.645-.499 1.123v5.083h-1.466v-5.27c0-.427-.088-.759-.265-.998-.166-.239-.395-.359-.686-.359h-.795c-.395 0-.738.172-1.029.515-.291.332-.473.774-.546 1.325v4.787h-1.45v-7.781h1.388v1.045c.208-.364.462-.65.764-.858.312-.208.629-.312.951-.312h.904c.416 0 .775.104 1.076.312.312.208.556.504.733.889.229-.395.509-.691.842-.889.333-.208.691-.312 1.076-.312zm13.095 0c.717 0 1.289.234 1.715.702.426.457.64 1.086.64 1.887v5.317h-1.451v-5.333c0-.395-.093-.707-.28-.935-.187-.239-.432-.359-.733-.359h-.811c-.395 0-.728.14-.998.421-.26.27-.426.645-.499 1.123v5.083h-1.465v-5.27c0-.427-.089-.759-.266-.998-.166-.239-.395-.359-.686-.359h-.795c-.395 0-.738.172-1.029.515-.291.332-.473.774-.546 1.325v4.787h-1.45v-7.781h1.388v1.045c.208-.364.463-.65.764-.858.312-.208.629-.312.951-.312h.905c.415 0 .774.104 1.075.312.312.208.557.504.733.889.229-.395.51-.691.842-.889.333-.208.692-.312 1.076-.312z" fill="#171717"/><path d="m160.875 187.074c.713-.156 1.426-.323 2.128-.501.868-.223 1.748-.479 2.595-.747 1.024-.334 2.038-.69 3.051-1.091 1.17-.457 2.317-.98 3.453-1.515 1.593-.768 3.141-1.626 4.644-2.572 1.504-.947 2.874-1.916 4.222-2.974 1.358-1.069 2.595-2.139 3.809-3.308.701-.679 1.381-1.37 2.038-2.094.59-.646 1.169-1.292 1.715-1.971.479-.579.958-1.17 1.414-1.771.234-.312.446-.613.68-.925" stroke="#171717" stroke-linecap="round" stroke-linejoin="round" stroke-width=".556877"/><path d="m143.445 66.0098c-34.147 0-61.8464 27.6767-61.8464 61.8352 0 34.159 27.6764 61.836 61.8354 61.836" stroke="#171717" stroke-linecap="round" stroke-linejoin="round" stroke-width=".556877"/><path d="m143.445 189.671c34.148 0 61.836-27.676 61.836-61.835" stroke="#171717" stroke-linecap="round" stroke-linejoin="round" stroke-width=".556877"/><path d="m205.27 127.836c0-34.1481-27.677-61.836-61.836-61.836" stroke="#171717" stroke-linecap="round" stroke-linejoin="round" stroke-width=".556877"/><path d="m143.445 189.67c34.148 0 61.825-27.677 61.825-61.825 0-34.1473-27.688-61.8352-61.825-61.8352" stroke="#171717" stroke-linecap="round" stroke-linejoin="round" stroke-width=".556877"/><path d="m143.445 66.0098c-34.147 0-61.8351 27.6879-61.8351 61.8352 0 34.148 27.6771 61.825 61.8241 61.825" stroke="#171717" stroke-linecap="round" stroke-linejoin="round" stroke-width=".556877"/><path d="m143.445 179.379c28.479 0 51.556-23.077 51.556-51.555 0-28.4789-23.099-51.5447-51.556-51.5447-28.456 0-51.5554 23.077-51.5554 51.5557 0 28.479 23.0774 51.556 51.5554 51.556z" stroke="#171717" stroke-linecap="round" stroke-linejoin="round" stroke-width=".556877"/><path d="m143.445 182.487c30.183 0 54.652-24.469 54.652-54.652 0-30.1822-24.469-54.6514-54.652-54.6514-30.182 0-54.6625 24.4803-54.6625 54.6634 0 30.182 24.4695 54.651 54.6515 54.651z" stroke="#171717" stroke-linecap="round" stroke-linejoin="round" stroke-width=".556877"/><path d="m81.9553 127.911c0-33.9247 27.5097-61.4344 61.4457-61.4344s61.446 27.5097 61.446 61.4454c0 33.936-27.51 61.446-61.446 61.446s-61.4457-27.521-61.4457-61.457zm6.315 0c0 30.45 24.6807 55.131 55.1307 55.131s55.131-24.681 55.131-55.131c0-30.4498-24.681-55.1195-55.12-55.1195s-55.1306 24.6808-55.1306 55.1415h-.0111z" stroke="#171717" stroke-width="1.11375"/><path d="m99.519 84.3438c-.1559.0334-.3119.089-.4566.1447-.8242.2562-1.6261.6015-2.4169.9579-.7796.3564-1.5704.7462-2.3166 1.1694-.7574.4232-1.5036.8799-2.2164 1.3699-.7239.4901-1.4256 1.0135-2.0938 1.5704-.6683.5569-1.3365 1.136-1.9602 1.7486s-1.2363 1.2585-1.8043 1.9379c-.5792.6683-1.1249 1.3811-1.6595 2.105-.5235.724-1.0135 1.4925-1.459 2.2721s-.8799 1.5927-1.2697 2.4173c-.3898.824-.7462 1.681-1.0469 2.55-.323.869-.5903 1.76-.8242 2.651-.2339.902-.4232 1.826-.5792 2.74-.1559.913-.2561 1.86-.3341 2.806-.0779.947-.0891 1.882-.0779 2.818.0111.936.0779 1.893.1782 2.84.1002.936.245 1.871.4343 2.807.1782.924.4232 1.849.6905 2.762s.5681 1.804.9245 2.684c.167.39.3452.769.5234 1.169" stroke="#171717" stroke-linecap="round" stroke-linejoin="round" stroke-width="1.11375"/><path d="m125.759 110.18c-9.757 0-17.664 7.918-17.664 17.664h35.328c0-9.757-7.919-17.664-17.664-17.664z" fill="#171717"/><path d="m161.087 145.498c9.757 0 17.665-7.919 17.665-17.664h-35.329c0 9.745 7.919 17.664 17.664 17.664z" fill="#171717"/><path d="m84.4949 214.428h117.1671" stroke="#171717" stroke-linecap="square" stroke-linejoin="round" stroke-width="1.11375"/><path d="m84.4949 210.816v7.206" stroke="#171717" stroke-linecap="square" stroke-linejoin="round" stroke-width="1.11375"/><path d="m201.662 210.807v7.206" stroke="#171717" stroke-linecap="square" stroke-linejoin="round" stroke-width="1.11375"/><path d="m59.7388 187.473v-118.514" stroke="#171717" stroke-linecap="square" stroke-linejoin="round" stroke-width="1.11375"/><path d="m56.1304 187.473h7.206" stroke="#171717" stroke-linecap="square" stroke-linejoin="round" stroke-width="1.11375"/><path d="m56.1304 68.959h7.206" stroke="#171717" stroke-linecap="square" stroke-linejoin="round" stroke-width="1.11375"/><path d="m121.174 237.139c0-.592.104-1.107.312-1.543.218-.437.572-.822 1.06-1.154l3.867-2.729c.239-.166.421-.359.546-.577.135-.229.203-.462.203-.702v-.499c0-.395-.135-.712-.406-.951-.27-.239-.634-.358-1.091-.358h-1.435c-.499 0-.899.176-1.2.53-.291.343-.437.816-.437 1.419h-1.481c0-1.009.275-1.804.826-2.386.562-.592 1.315-.889 2.261-.889h1.466c.894 0 1.611.245 2.152.733.551.478.826 1.112.826 1.902v.499c0 .946-.437 1.716-1.31 2.308l-3.757 2.588c-.333.229-.572.468-.718.718-.135.249-.202.577-.202.982h6.112v1.31h-7.594zm12.528 1.326c-.697 0-1.31-.151-1.84-.453-.52-.301-.925-.727-1.216-1.278-.291-.562-.437-1.201-.437-1.918v-3.883c0-.738.14-1.377.421-1.917.291-.551.697-.972 1.216-1.263.52-.302 1.123-.453 1.809-.453h1.341c.894 0 1.616.276 2.167.827s.827 1.278.827 2.183h-1.45c0-.51-.146-.915-.437-1.217-.281-.311-.65-.467-1.107-.467h-1.341c-.603 0-1.081.208-1.435.623-.353.406-.53.967-.53 1.684v1.7c.271-.395.624-.702 1.061-.92.447-.229.899-.343 1.356-.343h1.014c.966 0 1.736.291 2.307.873.583.572.874 1.326.874 2.261v.608c0 .665-.146 1.253-.437 1.762-.281.499-.686.889-1.216 1.17-.52.28-1.123.421-1.809.421zm1.138-1.295c.593 0 1.071-.187 1.435-.561.363-.374.545-.873.545-1.497v-.624c0-.55-.156-.992-.467-1.325-.312-.333-.728-.499-1.248-.499h-1.029c-.582 0-1.086.192-1.512.577-.416.385-.681.863-.796 1.435v.561c0 .582.177 1.05.53 1.403.364.354.842.53 1.435.53zm13.772-6.736c.717 0 1.289.234 1.715.702.426.457.639 1.086.639 1.887v5.317h-1.45v-5.333c0-.395-.093-.707-.28-.935-.188-.239-.432-.359-.733-.359h-.811c-.395 0-.728.14-.998.421-.26.27-.426.645-.499 1.123v5.083h-1.466v-5.27c0-.427-.088-.759-.265-.998-.166-.239-.395-.359-.686-.359h-.795c-.395 0-.738.172-1.029.515-.291.332-.473.774-.546 1.325v4.787h-1.45v-7.781h1.388v1.045c.208-.364.462-.65.764-.858.312-.208.629-.312.951-.312h.904c.416 0 .775.104 1.076.312.312.208.556.504.733.889.229-.395.509-.691.842-.889.333-.208.691-.312 1.076-.312zm13.095 0c.717 0 1.289.234 1.715.702.427.457.64 1.086.64 1.887v5.317h-1.45v-5.333c0-.395-.094-.707-.281-.935-.187-.239-.431-.359-.733-.359h-.811c-.395 0-.727.14-.998.421-.26.27-.426.645-.499 1.123v5.083h-1.465v-5.27c0-.427-.089-.759-.265-.998-.167-.239-.395-.359-.686-.359h-.796c-.395 0-.738.172-1.029.515-.291.332-.473.774-.546 1.325v4.787h-1.45v-7.781h1.388v1.045c.208-.364.463-.65.764-.858.312-.208.629-.312.951-.312h.905c.415 0 .774.104 1.076.312.311.208.556.504.732.889.229-.395.51-.691.842-.889.333-.208.692-.312 1.076-.312z" fill="#171717"/><path d="m11.5937 132.032c0-.593.104-1.107.3119-1.544.2183-.436.5717-.821 1.0603-1.154l3.8669-2.728c.2391-.167.421-.359.5458-.577.1351-.229.2027-.463.2027-.702v-.499c0-.395-.1352-.712-.4054-.951-.2703-.239-.6341-.359-1.0915-.359h-1.4345c-.499 0-.8992.177-1.2007.53-.291.343-.4366.816-.4366 1.419h-1.4812c0-1.008.2754-1.803.8264-2.385.5613-.593 1.3149-.889 2.2609-.889h1.4657c.8939 0 1.6112.244 2.1517.733.551.478.8265 1.112.8265 1.902v.499c0 .946-.4366 1.715-1.3098 2.308l-3.7578 2.588c-.3327.229-.5718.468-.7173.717-.1351.25-.2027.577-.2027.983h6.1123v1.309h-7.5936zm12.5275 1.325c-.6964 0-1.3097-.151-1.8399-.452-.5197-.301-.9251-.728-1.2162-1.279-.2911-.561-.4366-1.2-.4366-1.917v-3.883c0-.738.1403-1.377.421-1.918.2911-.551.6965-.972 1.2162-1.263.5198-.301 1.1227-.452 1.8088-.452h1.3409c.894 0 1.6164.275 2.1674.826.5509.551.8264 1.279.8264 2.183h-1.4501c0-.509-.1456-.915-.4366-1.216-.2807-.312-.6497-.468-1.1071-.468h-1.3409c-.603 0-1.0811.208-1.4346.624-.3534.405-.5301.967-.5301 1.684v1.7c.2703-.395.6237-.702 1.0603-.92.447-.229.8992-.343 1.3565-.343h1.0136c.9667 0 1.7359.291 2.3077.873.5821.571.8731 1.325.8731 2.261v.608c0 .665-.1455 1.252-.4366 1.762-.2806.499-.686.888-1.2162 1.169-.5197.281-1.1226.421-1.8087.421zm1.1383-1.294c.5925 0 1.0707-.187 1.4345-.561.3638-.375.5457-.874.5457-1.497v-.624c0-.551-.1559-.993-.4677-1.325-.3119-.333-.7277-.499-1.2474-.499h-1.0291c-.5822 0-1.0863.192-1.5125.577-.4158.384-.6809.862-.7952 1.434v.562c0 .582.1767 1.049.5301 1.403.3638.353.842.53 1.4345.53zm13.7719-6.736c.7172 0 1.2889.234 1.7151.702.4262.457.6393 1.086.6393 1.886v5.317h-1.4501v-5.332c0-.395-.0935-.707-.2806-.936-.1872-.239-.4314-.358-.7329-.358h-.8108c-.395 0-.7277.14-.9979.421-.2599.27-.4262.644-.499 1.122v5.083h-1.4657v-5.27c0-.426-.0883-.759-.2651-.998-.1663-.239-.395-.358-.686-.358h-.7953c-.395 0-.738.171-1.0291.514-.291.333-.4729.775-.5457 1.326v4.786h-1.4501v-7.78h1.3877v1.044c.2079-.363.4626-.649.7641-.857.3118-.208.6289-.312.9511-.312h.9044c.4158 0 .7744.104 1.0759.312.3118.208.5561.504.7328.889.2287-.395.5094-.692.842-.889.3327-.208.6913-.312 1.0759-.312zm13.0953 0c.7172 0 1.2889.234 1.7151.702.4262.457.6393 1.086.6393 1.886v5.317h-1.4501v-5.332c0-.395-.0935-.707-.2806-.936-.1872-.239-.4314-.358-.7329-.358h-.8108c-.395 0-.7277.14-.9979.421-.2599.27-.4262.644-.499 1.122v5.083h-1.4657v-5.27c0-.426-.0883-.759-.2651-.998-.1663-.239-.395-.358-.686-.358h-.7952c-.3951 0-.7381.171-1.0292.514-.291.333-.4729.775-.5457 1.326v4.786h-1.4501v-7.78h1.3877v1.044c.2079-.363.4626-.649.7641-.857.3118-.208.6289-.312.9511-.312h.9044c.4158 0 .7744.104 1.0759.312.3118.208.5561.504.7328.889.2287-.395.5094-.692.842-.889.3327-.208.6913-.312 1.0759-.312z" fill="#171717"/><path d="m287.549 306.764h-176.452c-43.993 0-79.6553 35.662-79.6553 79.655 0 43.994 35.6623 79.667 79.6553 79.667h176.452c43.993 0 79.656-35.662 79.656-79.656 0-43.993-35.663-79.666-79.656-79.666z" stroke="#171717" stroke-linecap="round" stroke-linejoin="round" stroke-width=".556877"/><path d="m172.064 575.146v.144" stroke="#171717" stroke-linecap="round" stroke-linejoin="round" stroke-width=".556877"/><path d="m172.064 570.423v-.155" stroke="#171717" stroke-linecap="round" stroke-linejoin="round" stroke-width=".556877"/><path d="m172.064 570.424.902.178.769.512.512.769.178.902-.178.913-.512.769-.769.512-.902.178" stroke="#171717" stroke-linecap="round" stroke-linejoin="round" stroke-width=".556877"/><path d="m172.064 575.146-.902-.178-.769-.501-.512-.769-.178-.913.178-.902.512-.769.769-.512.902-.178" stroke="#171717" stroke-linecap="round" stroke-linejoin="round" stroke-width=".556877"/><path d="m172.064 570.268.958.178.824.557.535.824.189.958-.189.957-.535.825-.824.557-.958.178" stroke="#171717" stroke-linecap="round" stroke-linejoin="round" stroke-width=".556877"/><path d="m172.064 575.289-.958-.189-.824-.557-.534-.824-.19-.958.19-.958.534-.824.824-.534.958-.201" stroke="#171717" stroke-linecap="round" stroke-linejoin="round" stroke-width=".556877"/><path d="m226.872 575.146v.144" stroke="#171717" stroke-linecap="round" stroke-linejoin="round" stroke-width=".556877"/><path d="m226.872 570.423v-.155" stroke="#171717" stroke-linecap="round" stroke-linejoin="round" stroke-width=".556877"/><path d="m226.872 570.424-.913.178-.768.512-.502.769-.178.902.178.913.502.769.768.512.913.178" stroke="#171717" stroke-linecap="round" stroke-linejoin="round" stroke-width=".556877"/><path d="m226.872 575.146.902-.178.769-.501.512-.769.178-.913-.178-.902-.512-.769-.769-.512-.902-.178" stroke="#171717" stroke-linecap="round" stroke-linejoin="round" stroke-width=".556877"/><path d="m226.872 570.268-.958.178-.824.557-.535.824-.2.958.2.957.535.825.824.557.958.178" stroke="#171717" stroke-linecap="round" stroke-linejoin="round" stroke-width=".556877"/><path d="m226.872 575.289.958-.189.824-.557.535-.824.189-.958-.189-.958-.535-.824-.824-.534-.958-.201" stroke="#171717" stroke-linecap="round" stroke-linejoin="round" stroke-width=".556877"/><path d="m199.474 575.146v.144" stroke="#171717" stroke-linecap="round" stroke-linejoin="round" stroke-width=".556877"/><path d="m199.474 570.423v-.155" stroke="#171717" stroke-linecap="round" stroke-linejoin="round" stroke-width=".556877"/><path d="m199.474 575.146.902-.178.769-.501.512-.769.178-.913-.178-.902-.512-.769-.769-.512-.902-.178" stroke="#171717" stroke-linecap="round" stroke-linejoin="round" stroke-width=".556877"/><path d="m199.474 570.424-.902.178-.769.512-.501.769-.178.902.178.913.501.769.769.512.902.178" stroke="#171717" stroke-linecap="round" stroke-linejoin="round" stroke-width=".556877"/><path d="m199.474 575.289.958-.189.824-.557.534-.824.19-.958-.19-.958-.534-.824-.824-.534-.958-.201" stroke="#171717" stroke-linecap="round" stroke-linejoin="round" stroke-width=".556877"/><path d="m199.474 570.268-.958.178-.824.557-.535.824-.189.958.189.957.535.825.824.557.958.178" stroke="#171717" stroke-linecap="round" stroke-linejoin="round" stroke-width=".556877"/><path d="m28.947 533.68h340.886" stroke="#171717" stroke-linecap="round" stroke-linejoin="round" stroke-width=".556877"/><path d="m31.4531 529.684h335.6629" stroke="#171717" stroke-linecap="round" stroke-linejoin="round" stroke-width=".556877"/><path d="m288.351 304.014h-178.078c-45.4075 0-82.2059 36.798-82.2059 82.195 0 45.396 36.7984 82.206 82.1949 82.206h178.089c45.408 0 82.195-36.799 82.195-82.195 0-45.397-36.787-82.206-82.195-82.206z" stroke="#171717" stroke-linecap="round" stroke-linejoin="round" stroke-width="1.11375"/><path d="m287.65 515.506h-176.53l-11.5052.167-11.8392.501-11.8392 1.002-11.4939 1.671-8.988 2.005-8.5091 2.339-8.0079 3.007-7.5066 3.497m335.8741 0-7.673-3.664-8.175-3.007-8.665-2.339-9.167-1.838-9.177-1.503-12.329-1.17-12.329-.501-12.174-.167m-256.174 14.178-1.1695.668-.8353.836-.3341 1.169-.167 1.336m340.8859 0-.167-1.336-.334-1.169-.835-.836-1.17-.668m-338.4022 3.82-.5012 12.675h341.8884l-.501-12.675m-338.7144 74.677.3341 7.173.6683 6.671 1.1694 6.003 1.3365 5.168 1.6706 4.5 1.5036 3.007 1.6706 2.506 1.3365 2.005 2.506 2.673 2.5059 2.338 2.6731 2.005 2.996 1.504 3.3301 1.503 3.6642 1.17 3.1631.668 3.3301.501 3.4972.334 3.9984.167 4.8336.167h244.1791l4.667-.167 4.165-.167 3.497-.334 3.331-.501 3.163-.668 3.664-1.17 3.33-1.503 3.007-1.504 2.673-2.005 2.506-2.338 2.495-2.673 1.336-2.005 1.671-2.506 1.504-3.007 1.67-4.5 1.337-5.168 1.169-6.003.668-6.671.335-7.173 2.672-60.176h-341.866l2.6619 60.176z" stroke="#171717" stroke-linecap="round" stroke-linejoin="round" stroke-width="1.11375"/><path d="m143.318 370.232h5.101v4.7c1.281-1.838 3.007-3.319 5.001-4.344 1.793-.868 3.775-1.303 5.758-1.303 3.486 0 6.081.947 7.763 2.851 1.681 1.894 2.517 4.712 2.528 8.42v20.46h-5.168v-19.48c0-2.851-.512-4.856-1.548-6.025-1.025-1.169-2.617-1.749-4.756-1.749-1.158 0-2.316.201-3.408.591-1.136.412-2.194 1.069-3.063 1.915-.924.769-1.681 1.704-2.272 2.762-.545 1.181-.824 2.473-.768 3.787v18.199h-5.179v-30.751h.022z" fill="#171717"/><path d="m177.042 370.21h5.202v19.357c0 2.862.456 4.889 1.403 6.07.936 1.18 2.45 1.771 4.555 1.782 2.328-.011 4.556-.925 6.237-2.528.925-.769 1.682-1.704 2.261-2.763.557-1.18.824-2.472.769-3.786v-18.154h5.179v30.75h-5.124v-4.756c-1.28 1.783-2.951 3.275-4.878 4.344-1.748.913-3.686 1.381-5.658 1.359-3.486 0-6.003-.936-7.562-2.818s-2.35-4.711-2.35-8.464l-.034-20.393h.012z" fill="#171717"/><path d="m210.578 370.234h5.123v4.756c1.036-1.593 2.428-2.941 4.054-3.921 1.492-.902 3.196-1.37 4.934-1.37.913 0 1.838.067 2.729.234l-.658 4.823c-.4-.078-.79-.156-1.18-.201-.423-.067-.869-.089-1.303-.089-.991 0-1.972.178-2.929.501-1.036.357-1.994.936-2.796 1.682-.846.724-1.548 1.615-2.049 2.617-.513 1.081-.769 2.261-.746 3.453v18.254h-5.179v-30.728z" fill="#171717"/><path d="m250.316 396.74c-1.18 1.414-2.606 2.595-4.21 3.486-1.96 1.025-4.143 1.526-6.359 1.459-1.437 0-2.874-.178-4.244-.568-1.236-.334-2.372-.902-3.363-1.682-.936-.779-1.682-1.771-2.172-2.884-.535-1.281-.791-2.651-.769-4.043-.089-1.793.39-3.587 1.337-5.124.902-1.325 2.127-2.383 3.564-3.096 1.593-.791 3.297-1.336 5.056-1.604 1.916-.323 3.832-.523 5.77-.601l5.301-.178v-1.192c0-2.617-.568-4.499-1.682-5.658-1.113-1.136-2.907-1.726-5.412-1.726-2.506 0-4.277.412-5.413 1.214-1.136.813-1.949 2.005-2.261 3.363l-4.7-.523c.189-1.259.623-2.45 1.325-3.519.691-1.07 1.593-1.972 2.651-2.651 2.105-1.281 4.956-1.938 8.565-1.927 1.893-.033 3.809.234 5.613.791 1.403.445 2.684 1.247 3.709 2.283.98 1.036 1.681 2.305 2.049 3.686.434 1.604.646 3.275.635 4.934v19.981h-4.99v-4.243zm-.111-11.171-4.934.178c-1.76.034-3.52.245-5.235.602-1.169.234-2.283.668-3.296 1.281-.758.478-1.359 1.169-1.727 1.993-.356.869-.523 1.793-.501 2.729-.044.679.078 1.359.323 2.005s.602 1.214 1.08 1.715c.936.935 2.462 1.403 4.622 1.403 3.052 0 5.424-.746 7.14-2.261.846-.779 1.514-1.748 1.949-2.806.434-1.07.623-2.217.579-3.375l.044-3.453h-.022z" fill="#171717"/><path d="m28 682.672h342.568" stroke="#171717" stroke-linecap="square" stroke-linejoin="round" stroke-width="1.11375"/><path d="m28 679.064v7.206" stroke="#171717" stroke-linecap="square" stroke-linejoin="round" stroke-width="1.11375"/><path d="m370.579 679.064v7.206" stroke="#171717" stroke-linecap="square" stroke-linejoin="round" stroke-width="1.11375"/><path d="m395.082 467.878v-163.878" stroke="#171717" stroke-linecap="square" stroke-linejoin="round" stroke-width="1.11375"/><path d="m391.473 467.879h7.206" stroke="#171717" stroke-linecap="square" stroke-linejoin="round" stroke-width="1.11375"/><path d="m391.473 304h7.206" stroke="#171717" stroke-linecap="square" stroke-linejoin="round" stroke-width="1.11375"/><path d="m413.383 584.75c.447.229.795.535 1.045.92.26.374.39.795.39 1.263v.624c0 .582-.135 1.096-.406 1.543-.27.437-.655.78-1.154 1.029-.499.239-1.075.359-1.73.359h-1.513c-.977 0-1.762-.296-2.354-.889-.582-.603-.873-1.408-.873-2.417h1.45c0 .603.161 1.087.483 1.451.322.353.754.53 1.294.53h1.513c.54 0 .977-.146 1.309-.437.333-.291.499-.681.499-1.169v-.624c0-.489-.166-.863-.499-1.123-.322-.26-.774-.39-1.356-.39h-1.762v-1.278h1.762c.52 0 .925-.13 1.216-.39s.437-.624.437-1.091v-.624c0-.426-.146-.764-.437-1.014-.281-.249-.66-.374-1.138-.374h-1.513c-.509 0-.92.182-1.231.546-.302.353-.453.831-.453 1.434h-1.497c0-1.008.286-1.808.858-2.401.582-.603 1.357-.904 2.323-.904h1.513c.925 0 1.663.249 2.214.748.561.489.842 1.144.842 1.965v.624c0 .436-.109.842-.327 1.216-.219.364-.52.655-.905.873zm5.998 5.738c-.946 0-1.7-.281-2.261-.842-.562-.561-.842-1.315-.842-2.261h1.45c0 .541.15.972.452 1.294.301.323.702.484 1.201.484h1.496c.551 0 .998-.161 1.341-.484.343-.322.515-.748.515-1.278v-.92c0-.489-.177-.884-.53-1.185-.343-.302-.801-.452-1.372-.452h-4.164v-5.395h7.142v1.325h-5.66v2.76h2.682c1.018 0 1.834.27 2.448.811.623.53.935 1.242.935 2.136v.92c0 .613-.14 1.154-.421 1.621-.27.468-.66.832-1.169 1.092-.499.249-1.081.374-1.747.374zm15.334-8.03c.717 0 1.289.234 1.715.702.426.457.639 1.086.639 1.886v5.317h-1.45v-5.332c0-.395-.094-.707-.281-.936-.187-.239-.431-.359-.733-.359h-.81c-.395 0-.728.141-.998.421-.26.271-.426.645-.499 1.123v5.083h-1.466v-5.27c0-.426-.088-.759-.265-.998-.166-.239-.395-.359-.686-.359h-.795c-.395 0-.738.172-1.029.515-.291.333-.473.774-.546 1.325v4.787h-1.45v-7.78h1.387v1.044c.208-.364.463-.649.765-.857.311-.208.628-.312.951-.312h.904c.416 0 .774.104 1.076.312.312.208.556.504.733.888.228-.395.509-.691.842-.888.332-.208.691-.312 1.076-.312zm13.095 0c.717 0 1.289.234 1.715.702.426.457.639 1.086.639 1.886v5.317h-1.45v-5.332c0-.395-.093-.707-.28-.936-.187-.239-.432-.359-.733-.359h-.811c-.395 0-.728.141-.998.421-.26.271-.426.645-.499 1.123v5.083h-1.466v-5.27c0-.426-.088-.759-.265-.998-.166-.239-.395-.359-.686-.359h-.795c-.395 0-.738.172-1.029.515-.291.333-.473.774-.546 1.325v4.787h-1.45v-7.78h1.388v1.044c.208-.364.462-.649.764-.857.312-.208.629-.312.951-.312h.904c.416 0 .775.104 1.076.312.312.208.556.504.733.888.229-.395.509-.691.842-.888.333-.208.691-.312 1.076-.312z" fill="#171717"/><path d="m395.082 657.757v-142.583" stroke="#171717" stroke-linecap="square" stroke-linejoin="round" stroke-width="1.11375"/><path d="m391.473 657.756h7.206" stroke="#171717" stroke-linecap="square" stroke-linejoin="round" stroke-width="1.11375"/><path d="m391.473 515.174h7.206" stroke="#171717" stroke-linecap="square" stroke-linejoin="round" stroke-width="1.11375"/><path d="m172.662 706.142c0-.52.047-1.04.141-1.56.104-.519.249-.977.436-1.372l2.932-6.206h-5.645v-1.325h7.375v.889l-3.134 6.751c-.197.427-.353.889-.468 1.388-.103.499-.155.977-.155 1.435v.452h-1.482zm6.175-.749c0-.592.103-1.107.311-1.544.219-.436.572-.821 1.061-1.153l3.867-2.729c.239-.166.421-.359.545-.577.136-.229.203-.463.203-.702v-.499c0-.395-.135-.712-.405-.951-.271-.239-.634-.358-1.092-.358h-1.434c-.499 0-.899.176-1.201.53-.291.343-.437.816-.437 1.419h-1.481c0-1.009.276-1.804.827-2.386.561-.593 1.315-.889 2.26-.889h1.466c.894 0 1.611.245 2.152.733.551.478.826 1.112.826 1.902v.499c0 .946-.436 1.716-1.309 2.308l-3.758 2.588c-.333.229-.572.468-.717.718-.136.249-.203.577-.203.982h6.112v1.31h-7.593zm9.861 1.357c-.291 0-.53-.089-.718-.265-.176-.188-.265-.427-.265-.718s.089-.53.265-.717c.188-.187.427-.281.718-.281.301 0 .54.094.717.281.187.177.281.416.281.717 0 .291-.094.53-.281.718-.187.176-.426.265-.717.265zm7.546-2.355h-4.663c-.696 0-1.044-.265-1.044-.795v-.359l5.753-7.562h1.45v7.406h1.373v1.31h-1.373v2.199h-1.496zm.046-1.278v-5.395h-.015l-4.07 5.395zm12.969-4.429c.717 0 1.289.234 1.715.702.426.457.639 1.086.639 1.887v5.317h-1.45v-5.333c0-.395-.094-.707-.281-.935-.187-.24-.431-.359-.732-.359h-.811c-.395 0-.728.14-.998.421-.26.27-.426.644-.499 1.123v5.083h-1.466v-5.271c0-.426-.088-.758-.265-.997-.166-.24-.395-.359-.686-.359h-.795c-.395 0-.738.171-1.029.514-.291.333-.473.775-.546 1.326v4.787h-1.45v-7.781h1.388v1.045c.207-.364.462-.65.764-.858.311-.208.628-.312.951-.312h.904c.416 0 .775.104 1.076.312.312.208.556.504.733.889.229-.395.509-.691.842-.889.332-.208.691-.312 1.076-.312zm13.095 0c.717 0 1.289.234 1.715.702.426.457.639 1.086.639 1.887v5.317h-1.45v-5.333c0-.395-.093-.707-.28-.935-.187-.24-.432-.359-.733-.359h-.811c-.395 0-.728.14-.998.421-.26.27-.426.644-.499 1.123v5.083h-1.466v-5.271c0-.426-.088-.758-.265-.997-.166-.24-.395-.359-.686-.359h-.795c-.395 0-.738.171-1.029.514-.291.333-.473.775-.546 1.326v4.787h-1.45v-7.781h1.388v1.045c.208-.364.462-.65.764-.858.312-.208.629-.312.951-.312h.904c.416 0 .775.104 1.076.312.312.208.556.504.733.889.229-.395.509-.691.842-.889.333-.208.691-.312 1.076-.312z" fill="#171717"/><path d="m413.383 385.322c.447.229.795.536 1.045.92.26.374.39.795.39 1.263v.624c0 .582-.135 1.097-.406 1.544-.27.436-.655.779-1.154 1.029-.499.239-1.075.358-1.73.358h-1.513c-.977 0-1.762-.296-2.354-.888-.582-.603-.873-1.409-.873-2.417h1.45c0 .603.161 1.086.483 1.45.322.353.754.53 1.294.53h1.513c.54 0 .977-.146 1.309-.437.333-.291.499-.681.499-1.169v-.624c0-.488-.166-.863-.499-1.122-.322-.26-.774-.39-1.356-.39h-1.762v-1.279h1.762c.52 0 .925-.13 1.216-.39s.437-.623.437-1.091v-.624c0-.426-.146-.764-.437-1.013-.281-.25-.66-.375-1.138-.375h-1.513c-.509 0-.92.182-1.231.546-.302.354-.453.832-.453 1.435h-1.497c0-1.009.286-1.809.858-2.402.582-.603 1.357-.904 2.323-.904h1.513c.925 0 1.663.25 2.214.748.561.489.842 1.144.842 1.965v.624c0 .436-.109.842-.327 1.216-.219.364-.52.655-.905.873zm6.419 5.738c-.666 0-1.253-.15-1.762-.452-.51-.301-.905-.722-1.185-1.263-.281-.551-.421-1.18-.421-1.887v-3.96c0-.707.14-1.331.421-1.871.28-.551.675-.977 1.185-1.279.509-.301 1.096-.452 1.762-.452h1.652c.655 0 1.232.151 1.731.452.51.302.899.728 1.17 1.279.28.54.421 1.164.421 1.871v3.96c0 .707-.141 1.336-.421 1.887-.271.541-.655.962-1.154 1.263-.499.302-1.081.452-1.747.452zm1.621-1.325c.562 0 1.014-.208 1.357-.624s.514-.967.514-1.653v-3.96c0-.686-.171-1.237-.514-1.653s-.795-.624-1.357-.624h-1.59c-.572 0-1.035.208-1.388.624s-.53.967-.53 1.653v3.96c0 .686.177 1.237.53 1.653s.816.624 1.388.624zm5.643 1.356c-.291 0-.53-.088-.717-.265-.177-.187-.265-.426-.265-.717s.088-.53.265-.717c.187-.187.426-.281.717-.281.302 0 .541.094.717.281.188.177.281.416.281.717 0 .291-.093.53-.281.717-.187.177-.426.265-.717.265zm2.488-1.356c0-.593.104-1.107.312-1.544.218-.436.572-.821 1.06-1.154l3.867-2.728c.239-.167.421-.359.546-.577.135-.229.203-.463.203-.702v-.499c0-.395-.135-.712-.406-.951-.27-.239-.634-.359-1.091-.359h-1.435c-.499 0-.899.177-1.2.531-.291.343-.437.816-.437 1.418h-1.481c0-1.008.275-1.803.826-2.385.562-.593 1.315-.889 2.261-.889h1.466c.894 0 1.611.244 2.152.733.551.478.826 1.112.826 1.902v.499c0 .946-.437 1.715-1.31 2.308l-3.758 2.588c-.332.229-.571.468-.717.717-.135.25-.202.577-.202.983h6.112v1.31h-7.594zm17.845-6.705c.717 0 1.289.234 1.715.702.426.457.639 1.086.639 1.886v5.318h-1.45v-5.333c0-.395-.093-.707-.281-.936-.187-.239-.431-.358-.732-.358h-.811c-.395 0-.728.14-.998.421-.26.27-.426.644-.499 1.122v5.084h-1.466v-5.271c0-.426-.088-.759-.265-.998-.166-.239-.395-.358-.686-.358h-.795c-.395 0-.738.171-1.029.514-.291.333-.473.775-.546 1.326v4.787h-1.45v-7.781h1.388v1.045c.208-.364.462-.65.764-.858.312-.208.629-.312.951-.312h.904c.416 0 .775.104 1.076.312.312.208.556.504.733.889.229-.395.509-.692.842-.889.333-.208.691-.312 1.076-.312zm13.095 0c.717 0 1.289.234 1.715.702.426.457.64 1.086.64 1.886v5.318h-1.451v-5.333c0-.395-.093-.707-.28-.936-.187-.239-.432-.358-.733-.358h-.811c-.395 0-.728.14-.998.421-.26.27-.426.644-.499 1.122v5.084h-1.465v-5.271c0-.426-.089-.759-.266-.998-.166-.239-.395-.358-.686-.358h-.795c-.395 0-.738.171-1.029.514-.291.333-.473.775-.546 1.326v4.787h-1.45v-7.781h1.388v1.045c.208-.364.463-.65.764-.858.312-.208.629-.312.951-.312h.905c.415 0 .774.104 1.075.312.312.208.557.504.733.889.229-.395.51-.692.842-.889.333-.208.692-.312 1.076-.312z" fill="#171717"/></svg>