<svg fill="none" height="638" viewBox="0 0 639 638" width="639" xmlns="http://www.w3.org/2000/svg" xmlns:xlink="http://www.w3.org/1999/xlink"><linearGradient id="a" gradientUnits="userSpaceOnUse" x1="211.754" x2="68.1801" y1="28.4068" y2="627.888"><stop offset="0" stop-color="#fff" stop-opacity="0"/><stop offset="1" stop-color="#fff"/></linearGradient><linearGradient id="b" gradientUnits="userSpaceOnUse" x1="573.16" x2="573.16" y1="216.95" y2="6"><stop offset="0" stop-color="#fff" stop-opacity=".01"/><stop offset=".04" stop-color="#fff" stop-opacity=".19"/><stop offset=".09" stop-color="#fff" stop-opacity=".36"/><stop offset=".14" stop-color="#fff" stop-opacity=".5"/><stop offset=".19" stop-color="#fff" stop-opacity=".63"/><stop offset=".25" stop-color="#fff" stop-opacity=".74"/><stop offset=".32" stop-color="#fff" stop-opacity=".82"/><stop offset=".39" stop-color="#fff" stop-opacity=".89"/><stop offset=".49" stop-color="#fff" stop-opacity=".94"/><stop offset=".63" stop-color="#fff" stop-opacity=".96"/><stop offset="1" stop-color="#fff" stop-opacity=".97"/></linearGradient><linearGradient id="c" gradientUnits="userSpaceOnUse" x1="573.16" x2="573.16" y1="460.66" y2="631.85"><stop offset="0" stop-color="#fff" stop-opacity="0"/><stop offset=".01" stop-color="#fff" stop-opacity=".07"/><stop offset=".06" stop-color="#fff" stop-opacity=".32"/><stop offset=".1" stop-color="#fff" stop-opacity=".53"/><stop offset=".14" stop-color="#fff" stop-opacity=".69"/><stop offset=".18" stop-color="#fff" stop-opacity=".8"/><stop offset=".21" stop-color="#fff" stop-opacity=".87"/><stop offset=".23" stop-color="#fff" stop-opacity=".9"/><stop offset=".58" stop-color="#fff" stop-opacity=".95"/><stop offset="1" stop-color="#fff"/></linearGradient><path d="m245.02 453.8c45.26 0 81.95-36.69 81.95-81.95 0-45.259-36.69-81.95-81.95-81.95-45.259 0-81.95 36.691-81.95 81.95 0 45.26 36.691 81.95 81.95 81.95z" stroke="#171717" stroke-linecap="round" stroke-linejoin="round" stroke-width=".45"/><path d="m315.87 295.36c16.184 14.042 27.601 32.768 32.67 53.587 5.07 20.818 3.54 42.697-4.377 62.607-7.917 19.911-21.829 36.866-39.81 48.519s-39.14 17.426-60.547 16.52c-21.407-.905-42.003-8.446-58.935-21.576s-29.362-31.2-35.569-51.708-5.883-42.438.927-62.754 19.768-38.011 37.081-50.635" stroke="#171717" stroke-linecap="round" stroke-linejoin="round" stroke-width=".45"/><path d="m245.02 446.11c41.012 0 74.26-33.247 74.26-74.26s-33.248-74.26-74.26-74.26c-41.013 0-74.26 33.247-74.26 74.26s33.247 74.26 74.26 74.26z" stroke="#171717" stroke-linecap="round" stroke-linejoin="round" stroke-width=".45"/><path d="m187.311 289.92c29.61-22.05 51.43-57.77 63-73 2.53-3.35 6.54-5.12 10.24-3.15l49.12 26.34c2.95 1.57 3.54 5 2.58 8.18-3.94 13.12-12.49 33.67 3.66 47.08" stroke="#171717" stroke-linecap="round" stroke-linejoin="round" stroke-width=".45"/><path d="m238.531 233.11 68.17 36.5" stroke="#171717" stroke-linecap="round" stroke-linejoin="round" stroke-width=".45"/><path d="m350.141 389.87c11.77-34.84-1.57-59.8-11.93-67.08" stroke="#171717" stroke-linecap="round" stroke-linejoin="round" stroke-width=".45"/><path d="m45 319.11c2-26 4.94-50.87 8.9-74.14" stroke="#171717" stroke-linecap="round" stroke-linejoin="round" stroke-width=".45"/><path d="m267.59 217.59c21.2-45.31 13.94-93.22-17.58-123.9996-27.31-26.69-66.61-32.2-102.55-14.37-42.05 20.7796-70.8198 75.5596-86.3198 162.7796-.0933.563-.2968 1.102-.5989 1.585-.302.484-.6967.904-1.1613 1.234-.4646.331-.99.567-1.546.694-.5559.127-1.1316.143-1.6938.047l-29.14-5.56c-1.137-.221-2.1421-.878-2.8001-1.832-.6579-.953-.9164-2.126-.7199-3.268 17.9-100.69 53-163.4296 106.8998-190.1696 51.97-25.73 109.33-17.24 149.7 22.27 43.15 42.1796 53.12 107.7296 25.39 166.9996l-.34.63-1.64 2.67" stroke="#171717" stroke-linecap="round" stroke-linejoin="round" stroke-width=".45"/><path d="m347.601 401.09c24.86-44.36 26.63-66.1 14-90.91-2.52-5-23.64-15.69-36.64-5.7" stroke="#171717" stroke-linecap="round" stroke-linejoin="round" stroke-width=".45"/><path d="m312.221 291.94c3.413-2.082 7.024-3.82 10.78-5.19 23.77-8 50.47 7.64 58.34 31 3.129 9.477 3.007 19.727-.345 29.128-3.353 9.4-9.745 17.414-18.165 22.772" stroke="#171717" stroke-linecap="round" stroke-linejoin="round" stroke-width=".45"/><path d="m314.291 294.12c3.078-1.8 6.307-3.329 9.65-4.57 22.2-7.47 47.21 7.34 54.56 29.18 2.698 8.166 2.811 16.965.323 25.198-2.488 8.232-7.454 15.497-14.223 20.802" stroke="#171717" stroke-linecap="round" stroke-linejoin="round" stroke-width=".45"/><path d="m306.75 281.06c3.719-2.734 7.815-4.913 12.16-6.47 23.76-8 51.5 10.71 61.26 39.7" stroke="#171717" stroke-linecap="round" stroke-linejoin="round" stroke-width=".45"/><path d="m347.791 400.85c-4.382 15.903-12.507 30.525-23.697 42.644-11.19 12.12-25.119 21.383-40.623 27.017-15.503 5.634-32.13 7.474-48.49 5.366s-31.978-8.102-45.547-17.481c-13.569-9.38-24.695-21.872-32.448-36.432s-11.907-30.764-12.115-47.258c-.207-16.494 3.537-32.798 10.92-47.549 7.384-14.75 18.192-27.519 31.52-37.237" stroke="#171717" stroke-linecap="round" stroke-linejoin="round" stroke-width="1.35"/><path d="m217.14 343.82c-7.398 0-14.493 2.938-19.725 8.168-5.231 5.231-8.172 12.324-8.175 19.722h55.79c0-7.397-2.938-14.491-8.169-19.721-5.23-5.23-12.324-8.169-19.721-8.169z" fill="#171717" stroke="#171717" stroke-miterlimit="10" stroke-width="3.01"/><path d="m272.91 399.61c7.398-.003 14.491-2.943 19.722-8.175 5.23-5.232 8.168-12.327 8.168-19.725h-55.79c0 7.4 2.939 14.496 8.171 19.728 5.233 5.233 12.329 8.172 19.729 8.172z" fill="#171717" stroke="#171717" stroke-miterlimit="10" stroke-width="3.01"/><path d="m347.73 401c5.737-9.971 10.772-20.329 15.07-31l.16-.41c8.419-5.356 14.811-13.368 18.164-22.767 3.352-9.398 3.474-19.647.346-29.123l-.22-.67c-8.84-26.25-38.45-50.52-62.21-42.53-4.287 1.536-8.329 3.685-12 6.38-2.35-11.25 2.5-23.68 5.19-32.64 1-3.2.37-6.61-2.58-8.18l-5.92-3.17 1.43-2.37.34-.63c27.73-59.24 17.76-124.79-25.39-166.9997-40.37-39.47-97.73-48-149.7-22.23-53.9302 26.74-89.0002 89.4797-106.9002 190.1697-.1965 1.142.0619 2.315.7198 3.268.658.953 1.6632 1.611 2.8002 1.832l1.66.32c-4 23.58-7 49-9.21 76.81-.38 4.947-.62 10.034-.72 15.26v281.59" stroke="#171717" stroke-linecap="round" stroke-linejoin="round" stroke-width="1.35"/><path d="m187.311 289.92c29.61-22.05 51.43-57.77 63-73 2.53-3.35 6.54-5.12 10.24-3.15l7.09 3.83c21.2-45.31 13.94-93.22-17.58-124.0001-27.31-26.69-66.61-32.2-102.55-14.37-42.1 20.77-70.8701 75.5501-86.3701 162.7701-.0933.563-.2969 1.101-.5989 1.585-.3021.484-.6968.903-1.1614 1.234s-.99.566-1.5459.694c-.556.127-1.1316.143-1.6938.047l-2.25-.43c-4 23.26-6.84 47.95-8.87 74-.33 4.34-.64 13.28-.64 13.28v281.59" stroke="#171717" stroke-linecap="round" stroke-linejoin="round" stroke-width="1.35"/><path d="m56.6106 615h-50.46998v-258c0-22.34 2.66-220.49 94.78038-299.6203 30.46-26.16 66.65-36.26 107.58-30l1 .18c59.45 11.59 87.71 45.26 101 71.47 20.41 40.3903 19.72 93.7103-1.82 139.1603l-45.61-21.62c15-31.67 15.92-68 2.38-94.78-11.81-23.3603-33.69-38.3603-65.05-44.5903-25.86-3.82-47.64 2.23-66.57 18.49-61.0804 52.4303-77.2204 193.8503-77.2204 261.3103z" fill="url(#a)"/><path d="m150.07 510.42h196.23" stroke="#171717" stroke-linecap="square" stroke-linejoin="round"/><path d="m151.16 514.16-6.48-3.74 6.48-3.74z" fill="#171717"/><path d="m345.211 514.16 6.47-3.74-6.47-3.74z" fill="#171717"/><path d="m232.739 530.19v-1.264c0-.778.133-1.418.4-1.92.266-.501.645-.906 1.136-1.216.501-.32 1.104-.586 1.808-.8l.976-.304c.437-.138.81-.309 1.12-.512.32-.202.565-.453.736-.752.17-.309.256-.666.256-1.072v-.064c0-.629-.214-1.12-.64-1.472-.427-.362-.987-.544-1.68-.544-.715 0-1.296.192-1.744.576-.438.384-.656.95-.656 1.696v.256h-1.664v-.24c0-.81.176-1.493.528-2.048.352-.565.837-.997 1.456-1.296.618-.298 1.312-.448 2.08-.448s1.45.144 2.048.432c.608.288 1.082.694 1.424 1.216.352.523.528 1.136.528 1.84v.144c0 .726-.144 1.328-.432 1.808s-.688.875-1.2 1.184c-.502.31-1.083.571-1.744.784l-.944.288c-.502.15-.907.315-1.216.496-.299.171-.523.379-.672.624-.139.246-.208.56-.208.944v.16h6.32v1.504zm13.627.224c-.821 0-1.552-.149-2.192-.448-.64-.298-1.141-.73-1.504-1.296-.352-.565-.528-1.237-.528-2.016v-.288h1.68v.256c0 .704.229 1.264.688 1.68.469.406 1.088.608 1.856.608s1.365-.192 1.792-.576.64-.869.64-1.456v-.144c0-.416-.101-.752-.304-1.008s-.475-.442-.816-.56c-.341-.128-.725-.192-1.152-.192h-2.032v-1.936l3.936-2.32v-.224h-6.016v-1.504h7.84v2.272l-3.76 2.24v.224h.688c.565 0 1.099.107 1.6.32.501.214.907.539 1.216.976.32.438.48.992.48 1.664v.192c0 .715-.171 1.339-.512 1.872-.341.523-.821.934-1.44 1.232-.619.288-1.339.432-2.16.432zm7.047 0c-.373 0-.688-.122-.944-.368-.245-.245-.368-.56-.368-.944s.123-.693.368-.928c.256-.245.571-.368.944-.368s.683.123.928.368c.256.246.384.555.384.928 0 .384-.128.699-.384.944-.245.246-.555.368-.928.368zm2.982-.224v-1.264c0-.778.133-1.418.4-1.92.267-.501.645-.906 1.136-1.216.501-.32 1.104-.586 1.808-.8l.976-.304c.437-.138.811-.309 1.12-.512.32-.202.565-.453.736-.752.171-.309.256-.666.256-1.072v-.064c0-.629-.213-1.12-.64-1.472-.427-.362-.987-.544-1.68-.544-.715 0-1.296.192-1.744.576-.437.384-.656.95-.656 1.696v.256h-1.664v-.24c0-.81.176-1.493.528-2.048.352-.565.837-.997 1.456-1.296.619-.298 1.312-.448 2.08-.448s1.451.144 2.048.432c.608.288 1.083.694 1.424 1.216.352.523.528 1.136.528 1.84v.144c0 .726-.144 1.328-.432 1.808s-.688.875-1.2 1.184c-.501.31-1.083.571-1.744.784l-.944.288c-.501.15-.907.315-1.216.496-.299.171-.523.379-.672.624-.139.246-.208.56-.208.944v.16h6.32v1.504z" fill="#171717"/><path d="m144.68 481.81v34.67" stroke="#171717" stroke-linecap="square" stroke-linejoin="round"/><path d="m351.68 481.28v34.68" stroke="#171717" stroke-linecap="square" stroke-linejoin="round"/><path d="m111.26 384.8v86.64" stroke="#171717" stroke-linecap="square" stroke-linejoin="round"/><path d="m107.521 470.34 3.74 6.48 3.74-6.48z" fill="#171717"/><path d="m111.26 275.4v87.4" stroke="#171717" stroke-linecap="square" stroke-linejoin="round"/><path d="m107.521 276.5 3.74-6.48 3.74 6.48z" fill="#171717"/><path d="m95.4301 378.68v-1.264c0-.779.1333-1.419.4-1.92.2667-.502.6453-.907 1.136-1.216.5013-.32 1.104-.587 1.808-.8l.976-.304c.4369-.139.8109-.31 1.1199-.512.32-.203.565-.454.736-.752.171-.31.256-.667.256-1.072v-.064c0-.63-.213-1.12-.64-1.472-.427-.363-.987-.544-1.6799-.544-.7147 0-1.296.192-1.744.576-.4373.384-.656.949-.656 1.696v.256h-1.664v-.24c0-.811.176-1.494.528-2.048.352-.566.8373-.998 1.456-1.296.6187-.299 1.312-.448 2.08-.448.7679 0 1.4509.144 2.0479.432.608.288 1.083.693 1.424 1.216.352.522.528 1.136.528 1.84v.144c0 .725-.144 1.328-.432 1.808s-.688.874-1.2 1.184c-.501.309-1.083.57-1.744.784l-.9439.288c-.5013.149-.9067.314-1.216.496-.2987.17-.5227.378-.672.624-.1387.245-.208.56-.208.944v.16h6.3199v1.504zm13.6269.224c-.821 0-1.552-.15-2.192-.448-.64-.299-1.141-.731-1.504-1.296-.352-.566-.528-1.238-.528-2.016v-.288h1.68v.256c0 .704.23 1.264.688 1.68.47.405 1.088.608 1.856.608s1.366-.192 1.792-.576c.427-.384.64-.87.64-1.456v-.144c0-.416-.101-.752-.304-1.008-.202-.256-.474-.443-.816-.56-.341-.128-.725-.192-1.152-.192h-2.032v-1.936l3.936-2.32v-.224h-6.016v-1.504h7.84v2.272l-3.76 2.24v.224h.688c.566 0 1.099.106 1.6.32.502.213.907.538 1.216.976.32.437.48.992.48 1.664v.192c0 .714-.17 1.338-.512 1.872-.341.522-.821.933-1.44 1.232-.618.288-1.338.432-2.16.432zm7.047 0c-.373 0-.688-.123-.944-.368-.245-.246-.368-.56-.368-.944s.123-.694.368-.928c.256-.246.571-.368.944-.368.374 0 .683.122.928.368.256.245.384.554.384.928 0 .384-.128.698-.384.944-.245.245-.554.368-.928.368zm2.982-.224v-1.264c0-.779.134-1.419.4-1.92.267-.502.646-.907 1.136-1.216.502-.32 1.104-.587 1.808-.8l.976-.304c.438-.139.811-.31 1.12-.512.32-.203.566-.454.736-.752.171-.31.256-.667.256-1.072v-.064c0-.63-.213-1.12-.64-1.472-.426-.363-.986-.544-1.68-.544-.714 0-1.296.192-1.744.576-.437.384-.656.949-.656 1.696v.256h-1.664v-.24c0-.811.176-1.494.528-2.048.352-.566.838-.998 1.456-1.296.619-.299 1.312-.448 2.08-.448s1.451.144 2.048.432c.608.288 1.083.693 1.424 1.216.352.522.528 1.136.528 1.84v.144c0 .725-.144 1.328-.432 1.808s-.688.874-1.2 1.184c-.501.309-1.082.57-1.744.784l-.944.288c-.501.149-.906.314-1.216.496-.298.17-.522.378-.672.624-.138.245-.208.56-.208.944v.16h6.32v1.504z" fill="#171717"/><g stroke="#171717"><path d="m106.33 270.02h35.2" stroke-linecap="square" stroke-linejoin="round"/><path d="m106.33 476.82h35.2" stroke-linecap="square" stroke-linejoin="round"/><path d="m624.9 284.15c-15.13-8-16.59-34.11-18.67-52.25" stroke-linecap="round" stroke-linejoin="round" stroke-width=".45"/><path d="m553.77 217.87c-6.59 2.6-10.78 6.5-10.78 10.86 0 7.82 13.51 14.16 30.17 14.16s30.16-6.34 30.16-14.16c0-4.36-4.18-8.25-10.77-10.85" stroke-linecap="round" stroke-linejoin="round" stroke-width=".45"/><path d="m553.75 228.73c0 5 8.69 9.1 19.41 9.1s19.4-4.07 19.4-9.1" stroke-linecap="round" stroke-linejoin="round" stroke-width=".45"/><path d="m553.751 217.82c-8.35 3.15-13.79 8.28-13.79 14.08 0 9.58 14.83 17.35 33.14 17.35s33.13-7.77 33.13-17.35c0-5.77-5.38-10.88-13.67-14" stroke-linecap="round" stroke-linejoin="round" stroke-width=".45"/><path d="m538.51 251.36c0 9.58 15.66 17.35 35 17.35s35-7.77 35-17.35" stroke-linecap="round" stroke-linejoin="round" stroke-width=".45"/><path d="m592.561 228.73v-200.94" stroke-linecap="round" stroke-linejoin="round" stroke-width=".45"/><path d="m553.76 228.73v-200.94" stroke-linecap="round" stroke-linejoin="round" stroke-width=".45"/><path d="m592.56 27.7898c-.115-5.0703-2.21-9.8941-5.837-13.4393-3.626-3.5452-8.496-5.53019-13.568-5.53019s-9.942 1.98499-13.568 5.53019c-3.627 3.5452-5.722 8.369-5.837 13.4393" stroke-linecap="round" stroke-linejoin="round" stroke-width=".45"/><path d="m538.511 251.36c0 15.25-10.5 60-28 59-9.07-.52-29.51-8.66-43.56-15.46" stroke-linecap="round" stroke-linejoin="round" stroke-width=".45"/><path d="m538.51 251.36c0-7.13.37-18.4 2-22.63" stroke-linecap="round" stroke-linejoin="round" stroke-width=".45"/><path d="m510.552 310.32c0 32.94-5.72 136-11.45 132.64" stroke-linecap="round" stroke-linejoin="round" stroke-width=".45"/><path d="m625.381 444.3c-16.24 12.93-30.24 15.3-52.24 15.31-25.51 0-61-.86-74.06-16.65-31.22-37.77-46.6-86.1-61.62-90.56" stroke-linecap="round" stroke-linejoin="round" stroke-width=".45"/><path d="m624.91 284.15v160.15" stroke-linecap="round" stroke-linejoin="round" stroke-width=".45"/><path d="m633.3 364.75c0-25.58-5.57-70.56-8.4-71.23" stroke-linecap="round" stroke-linejoin="round" stroke-width=".45"/><path d="m633.3 364.75c0 25.57-5.57 70.55-8.4 71.22" stroke-linecap="round" stroke-linejoin="round" stroke-width=".45"/><path d="m632.03 391.22c-3.26-2.91-3.78-20.07-3.78-26.47h5" stroke-linecap="round" stroke-linejoin="round" stroke-width=".45"/><path d="m573.16 268.71v190.9" stroke-linecap="round" stroke-linejoin="round" stroke-width=".45"/><path d="m477.911 299.84c3.1-9.28 4-15.68 1.81-16.79-4-2.07-17 15.05-28.94 38.24s-18.42 43.71-14.41 45.71c1.79.93 5.39-2 9.89-7.6" stroke-linecap="round" stroke-linejoin="round" stroke-width=".45"/><path d="m476.341 299.26c3.12-9 3.8-14.22 1.87-15.21-3.58-1.85-15.85 14.82-27.42 37.22s-18 42.07-14.47 43.92c1.65.85 4.57-1.17 9-6.91" stroke-linecap="round" stroke-linejoin="round" stroke-width=".45"/><path d="m478.94 282.64c-13.61-6.24-41.48-6.33-53 8.43-10 12.86-12.86 21.47-14.61 27.1-2.93 9.45 2.46 37.36 24.21 48.45" stroke-linecap="round" stroke-linejoin="round" stroke-width=".45"/><path d="m553.75 228.73c0 5 8.69 9.1 19.41 9.1s19.4-4.07 19.4-9.1" stroke-linecap="round" stroke-linejoin="round" stroke-width="1.35"/><path d="m606.231 231.9c0-5.77-5.38-10.88-13.67-14" stroke-linecap="round" stroke-linejoin="round" stroke-width="1.35"/><path d="m553.751 217.82c-8.35 3.15-13 7-14.05 14.08" stroke-linecap="round" stroke-linejoin="round" stroke-width="1.35"/><path d="m592.561 228.73v-200.94" stroke-linecap="round" stroke-linejoin="round" stroke-width="1.35"/><path d="m553.76 228.73v-200.94" stroke-linecap="round" stroke-linejoin="round" stroke-width="1.35"/><path d="m592.56 27.7898c-.115-5.0703-2.21-9.8941-5.837-13.4393-3.626-3.5452-8.496-5.53019-13.568-5.53019s-9.942 1.98499-13.568 5.53019c-3.627 3.5452-5.722 8.369-5.837 13.4393" stroke-linecap="round" stroke-linejoin="round" stroke-width="1.35"/><path d="m538.511 251.36c0 15.25-10.5 60-28 59-9.07-.52-29.51-8.66-43.56-15.46" stroke-linecap="round" stroke-linejoin="round" stroke-width="1.35"/><path d="m538.51 251.36c0-7.13.37-18.4 2-22.63" stroke-linecap="round" stroke-linejoin="round" stroke-width="1.35"/><path d="m633.3 364.75c0-25.58-5.57-70.56-8.4-71.23v-9.37c-15.13-8-16.59-34.11-18.67-52.25" stroke-linecap="round" stroke-linejoin="round" stroke-width="1.35"/><path d="m633.3 364.75c0 25.57-5.57 70.55-8.4 71.22v8.71c-16.08 12.6-30 14.92-51.74 14.93-25.51 0-61-.86-74.06-16.65-31.22-37.77-46.6-86.1-61.62-90.56" stroke-linecap="round" stroke-linejoin="round" stroke-width="1.35"/></g><path d="m632.03 391.22c-3.26-2.91-3.78-20.07-3.78-26.47h5c.05 7.25-.52 17.56-1.22 26.47z" fill="#171717"/><path d="m477.911 299.84c3.1-9.28 4-15.68 1.81-16.79-4-2.07-17 15.05-28.94 38.24s-18.42 43.71-14.41 45.71c1.79.93 5.39-2 9.89-7.6" stroke="#171717" stroke-linecap="round" stroke-linejoin="round" stroke-width="1.35"/><path d="m478.94 282.64c-13.61-6.24-41.48-6.33-53 8.43-10 12.86-12.86 21.47-14.61 27.1-2.93 9.45 2.46 37.36 24.21 48.45" stroke="#171717" stroke-linecap="round" stroke-linejoin="round" stroke-width="1.35"/><path d="m559.74 632.09v-172.61" stroke="#171717" stroke-linecap="round" stroke-linejoin="round" stroke-width="1.35"/><path d="m586.58 459.17v172.43" stroke="#171717" stroke-linecap="round" stroke-linejoin="round" stroke-width="1.35"/><path d="m594.841 6h-43.361v210.95h43.361z" fill="url(#b)"/><path d="m594.841 460.66h-43.361v171.19h43.361z" fill="url(#c)"/><path d="m415.861 510.42h212.23" stroke="#171717" stroke-linecap="square" stroke-linejoin="round"/><path d="m416.95 514.16-6.47-3.74 6.47-3.74z" fill="#171717"/><path d="m627 514.16 6.48-3.74-6.48-3.74z" fill="#171717"/><path d="m506.168 530.19v-1.264c0-.778.134-1.418.4-1.92.267-.501.646-.906 1.136-1.216.502-.32 1.104-.586 1.808-.8l.976-.304c.438-.138.811-.309 1.12-.512.32-.202.566-.453.736-.752.171-.309.256-.666.256-1.072v-.064c0-.629-.213-1.12-.64-1.472-.426-.362-.986-.544-1.68-.544-.714 0-1.296.192-1.744.576-.437.384-.656.95-.656 1.696v.256h-1.664v-.24c0-.81.176-1.493.528-2.048.352-.565.838-.997 1.456-1.296.619-.298 1.312-.448 2.08-.448s1.451.144 2.048.432c.608.288 1.083.694 1.424 1.216.352.523.528 1.136.528 1.84v.144c0 .726-.144 1.328-.432 1.808s-.688.875-1.2 1.184c-.501.31-1.082.571-1.744.784l-.944.288c-.501.15-.906.315-1.216.496-.298.171-.522.379-.672.624-.138.246-.208.56-.208.944v.16h6.32v1.504zm14.564 0v-2.288h-5.664v-1.952l4.288-6.96h3.056v7.424h1.888v1.488h-1.888v2.288zm-4.032-3.776h4.032v-6.368h-.256l-3.776 6.144zm10.19 4c-.374 0-.688-.122-.944-.368-.246-.245-.368-.56-.368-.944s.122-.693.368-.928c.256-.245.57-.368.944-.368.373 0 .682.123.928.368.256.246.384.555.384.928 0 .384-.128.699-.384.944-.246.246-.555.368-.928.368zm8.342-.224v-2.288h-5.664v-1.952l4.288-6.96h3.056v7.424h1.888v1.488h-1.888v2.288zm-4.032-3.776h4.032v-6.368h-.256l-3.776 6.144z" fill="#171717"/><path d="m410.471 481.81v34.67" stroke="#171717" stroke-linecap="square" stroke-linejoin="round"/><path d="m633.471 481.28v34.68" stroke="#171717" stroke-linecap="square" stroke-linejoin="round"/></svg>