<svg fill="none" height="749" viewBox="0 0 477 749" width="477" xmlns="http://www.w3.org/2000/svg"><path d="m329.07 270.449h-211.58c-53.9361 0-97.6599 43.724-97.6599 97.66v.01c0 53.936 43.7238 97.66 97.6599 97.66h211.58c53.936 0 97.66-43.724 97.66-97.66v-.01c0-53.936-43.724-97.66-97.66-97.66z" stroke="#171717" stroke-linecap="round" stroke-linejoin="round" stroke-width="1.35"/><path d="m328.11 273.72h-209.64c-52.2682 0-94.6399 42.371-94.6399 94.64v.01c0 52.268 42.3717 94.64 94.6399 94.64h209.64c52.268 0 94.64-42.372 94.64-94.64v-.01c0-52.269-42.372-94.64-94.64-94.64z" stroke="#171717" stroke-linecap="round" stroke-linejoin="round" stroke-width=".45"/><path d="m156.76 349.13h6.07v5.58c1.531-2.178 3.57-3.949 5.94-5.16 2.138-1.025 4.479-1.554 6.85-1.55 4.153 0 7.227 1.13 9.22 3.39s2.993 5.593 3 10v24.31h-6.14v-23.15c0-3.387-.613-5.777-1.84-7.17-1.22-1.39-3.11-2.08-5.65-2.08-1.383.001-2.756.238-4.06.7-1.363.484-2.605 1.259-3.64 2.27-1.087.923-1.998 2.034-2.69 3.28-.661 1.401-.973 2.942-.91 4.49v21.62h-6.15z" fill="#171717"/><path d="m196.82 349.13h6.18v23c0 3.4.553 5.803 1.66 7.21s2.91 2.113 5.41 2.12c2.762-.019 5.413-1.092 7.41-3 1.089-.92 2.001-2.032 2.69-3.28.665-1.401.98-2.941.92-4.49v-21.56h6.15v36.53h-6.08v-5.66c-1.531 2.121-3.507 3.883-5.79 5.16-2.075 1.079-4.381 1.635-6.72 1.62-4.14 0-7.14-1.12-9-3.36s-2.79-5.593-2.79-10.06z" fill="#171717"/><path d="m236.67 349.13h6.08v5.65c1.234-1.894 2.878-3.487 4.81-4.66 1.769-1.066 3.795-1.629 5.86-1.63 1.09-.014 2.178.08 3.25.28l-.78 5.73c-.47-.09-.94-.18-1.41-.25-.513-.072-1.032-.105-1.55-.1-1.182.008-2.354.211-3.47.6-1.231.433-2.361 1.114-3.32 2-1.012.863-1.842 1.921-2.44 3.109-.606 1.281-.907 2.684-.88 4.101v21.69h-6.15z" fill="#171717"/><path d="m283.88 380.64c-1.399 1.674-3.094 3.078-5 4.139-2.327 1.223-4.933 1.82-7.56 1.731-1.706.014-3.406-.212-5.05-.671-1.456-.385-2.818-1.066-4-2-1.116-.926-2-2.1-2.58-3.43-.641-1.517-.954-3.153-.92-4.8-.098-2.14.456-4.261 1.59-6.08 1.073-1.569 2.533-2.833 4.24-3.67 1.89-.94 3.914-1.584 6-1.909 2.269-.383 4.561-.62 6.86-.711l6.29-.21v-1.41c0-3.113-.667-5.353-2-6.72-1.32-1.36-3.46-2.049-6.43-2.049s-5.07.489-6.43 1.449c-1.358.957-2.316 2.382-2.69 4l-5.58-.629c.218-1.488.754-2.912 1.57-4.174.816-1.263 1.893-2.336 3.16-3.147 2.5-1.533 5.893-2.296 10.18-2.29 2.264-.053 4.521.268 6.68.951 1.664.545 3.175 1.477 4.41 2.72 1.164 1.234 2.003 2.74 2.44 4.379.518 1.913.767 3.889.74 5.871v23.739h-5.93zm-.14-13.281-5.87.211c-2.091.048-4.172.285-6.22.709-1.386.273-2.713.787-3.92 1.52-.904.564-1.618 1.386-2.05 2.36-.416 1.033-.62 2.138-.6 3.25-.037.811.092 1.621.377 2.381.285.759.722 1.453 1.283 2.039 1.11 1.11 2.93 1.66 5.48 1.66 3.63 0 6.45-.89 8.48-2.68 1.01-.928 1.803-2.069 2.322-3.339.518-1.271.75-2.64.678-4.011z" fill="#171717"/><path d="m118.44 521.76h209.69m95.22 110.06-.4 8.51-.79 7.92-1.39 7.13-1.58 6.14-2 5.339-1.78 3.571-2 3-1.59 2.369-3 3.17-3 2.771-3.17 2.38-3.56 1.78-4 1.78-4.36 1.39-3.76.789-4 .601-4.16.389-4.95.2-5.54.201h-289.99l-5.74-.201-4.75-.2-4.16-.389-4-.601-3.76-.789-4.36-1.39-4-1.78-3.56-1.78-3.05-2.35-3-2.77-3-3.17-1.59-2.37-2-3-1.78-3.57-2-5.341-1.58-6.14-1.41-7.129-.79-7.921-.4-8.51zm0 0 3.16-71.48h-406.27l3.16 71.48zm-304.95-110.091-13.66.201-14.06.59-14 1.19-13.67 2-10.7 2.389-10.1 2.771-9.5 3.56-8.91 4.16m0 0-1.39.79-1 1-.41 1.38-.2 1.58zm399 0-9.11-4.361-9.7-3.56-10.3-2.769-10.89-2.181-10.89-1.779-14.65-1.391-14.68-.549-14.45-.201m-307.3 21.341-.59 15.05h406.09l-.59-15.05m-.03.2-.2-1.58-.39-1.39-1-1-1.39-.79z" stroke="#171717" stroke-linecap="round" stroke-linejoin="round" stroke-width="1.35"/><path d="m234.23 592.58v.1.08" stroke="#171717" stroke-dasharray="6.48 3.24" stroke-linecap="round" stroke-linejoin="round" stroke-width=".45"/><path d="m234.23 586.97v-.1-.08" stroke="#171717" stroke-dasharray="6.48 3.24" stroke-linecap="round" stroke-linejoin="round" stroke-width=".45"/><path d="m212.53 592.58v.1.08" stroke="#171717" stroke-dasharray="6.48 3.24" stroke-linecap="round" stroke-linejoin="round" stroke-width=".45"/><path d="m212.53 586.97v-.1-.08" stroke="#171717" stroke-dasharray="6.48 3.24" stroke-linecap="round" stroke-linejoin="round" stroke-width=".45"/><path d="m190.83 592.58v.1.08" stroke="#171717" stroke-dasharray="6.48 3.24" stroke-linecap="round" stroke-linejoin="round" stroke-width=".45"/><path d="m190.83 586.97v-.1-.08" stroke="#171717" stroke-dasharray="6.48 3.24" stroke-linecap="round" stroke-linejoin="round" stroke-width=".45"/><path d="m255.94 592.58v.1.08" stroke="#171717" stroke-dasharray="6.48 3.24" stroke-linecap="round" stroke-linejoin="round" stroke-width=".45"/><path d="m255.94 586.97v-.1-.08" stroke="#171717" stroke-dasharray="6.48 3.24" stroke-linecap="round" stroke-linejoin="round" stroke-width=".45"/><path d="m234.23 592.58 1.08-.21.91-.61.6-.91.22-1.07-.22-1.08-.6-.91-.91-.61-1.08-.21" stroke="#171717" stroke-dasharray="6.48 3.24" stroke-linecap="round" stroke-linejoin="round" stroke-width=".45"/><path d="m234.23 586.97-1.07.21-.91.61-.61.91-.21 1.08.21 1.07.61.91.91.61 1.07.22" stroke="#171717" stroke-dasharray="6.48 3.24" stroke-linecap="round" stroke-linejoin="round" stroke-width=".45"/><path d="m255.94 586.97-1.08.21-.91.61-.61.91-.21 1.08.21 1.07.61.91.91.61 1.08.22" stroke="#171717" stroke-dasharray="6.48 3.24" stroke-linecap="round" stroke-linejoin="round" stroke-width=".45"/><path d="m255.94 592.58 1.07-.21.91-.61.61-.91.21-1.07-.21-1.08-.61-.91-.91-.61-1.07-.21" stroke="#171717" stroke-dasharray="6.48 3.24" stroke-linecap="round" stroke-linejoin="round" stroke-width=".45"/><path d="m190.83 586.97 1.07.21.91.61.61.91.21 1.08-.21 1.07-.61.91-.91.61-1.07.22" stroke="#171717" stroke-dasharray="6.48 3.24" stroke-linecap="round" stroke-linejoin="round" stroke-width=".45"/><path d="m190.83 592.58-1.08-.21-.91-.61-.6-.91-.22-1.07.22-1.08.6-.91.91-.61 1.08-.21" stroke="#171717" stroke-dasharray="6.48 3.24" stroke-linecap="round" stroke-linejoin="round" stroke-width=".45"/><path d="m212.53 586.97 1.07.21.91.61.61.91.22 1.08-.22 1.07-.61.91-.91.61-1.07.22" stroke="#171717" stroke-dasharray="6.48 3.24" stroke-linecap="round" stroke-linejoin="round" stroke-width=".45"/><path d="m212.53 592.58-1.07-.21-.91-.61-.61-.91-.22-1.07.22-1.08.61-.91.91-.61 1.07-.21" stroke="#171717" stroke-dasharray="6.48 3.24" stroke-linecap="round" stroke-linejoin="round" stroke-width=".45"/><path d="m255.94 586.79-1.15.23-.96.64-.65.97-.23 1.14.23 1.15.65.97.96.64 1.15.23" stroke="#171717" stroke-dasharray="6.48 3.24" stroke-linecap="round" stroke-linejoin="round" stroke-width=".45"/><path d="m190.83 586.79 1.14.23.97.64.64.97.23 1.14-.23 1.15-.64.97-.97.64-1.14.23" stroke="#171717" stroke-dasharray="6.48 3.24" stroke-linecap="round" stroke-linejoin="round" stroke-width=".45"/><path d="m190.83 592.76-1.14-.23-.97-.64-.65-.98-.23-1.14.23-1.13.65-.97.97-.65 1.14-.23" stroke="#171717" stroke-dasharray="6.48 3.24" stroke-linecap="round" stroke-linejoin="round" stroke-width=".45"/><path d="m212.53 586.79 1.14.23.97.64.64.97.23 1.14-.23 1.15-.64.97-.97.64-1.14.23" stroke="#171717" stroke-dasharray="6.48 3.24" stroke-linecap="round" stroke-linejoin="round" stroke-width=".45"/><path d="m255.94 592.76 1.13-.23.97-.64.65-.98.23-1.14-.23-1.13-.64-.97-.97-.65-1.14-.23" stroke="#171717" stroke-dasharray="6.48 3.24" stroke-linecap="round" stroke-linejoin="round" stroke-width=".45"/><path d="m212.53 592.76-1.14-.23-.97-.64-.64-.98-.23-1.14.23-1.13.64-.97.97-.65 1.14-.23" stroke="#171717" stroke-dasharray="6.48 3.24" stroke-linecap="round" stroke-linejoin="round" stroke-width=".45"/><path d="m234.23 592.76 1.14-.23.97-.64.65-.98.23-1.14-.23-1.13-.65-.97-.96-.65-1.15-.23" stroke="#171717" stroke-dasharray="6.48 3.24" stroke-linecap="round" stroke-linejoin="round" stroke-width=".45"/><path d="m234.23 586.79-1.14.23-.97.64-.64.97-.23 1.14.23 1.15.64.97.97.64 1.14.23" stroke="#171717" stroke-dasharray="6.48 3.24" stroke-linecap="round" stroke-linejoin="round" stroke-width=".45"/><path d="m23.4 631.85h399.77" stroke="#171717" stroke-linecap="round" stroke-linejoin="round" stroke-width=".45"/><path d="m20.8301 543.34h404.9099" stroke="#171717" stroke-linecap="round" stroke-linejoin="round" stroke-width=".45"/><path d="m23.8 538.59h398.72" stroke="#171717" stroke-linecap="round" stroke-linejoin="round" stroke-width=".45"/><path d="m127.02 55.6191-4.56.19-4.55.4-4.55.79-4.36 1-4.38 1.27-4.15 1.58-4.1599 2-4.16 2-3.76 2.58-3.76 2.57-3.57 3-3.17 3-3.13 3.44-3 3.56-2.56 3.48-2.37 4-2.18 4-2 4.16-1.59 4.3599-1.25 4.22-1.19 4.36-.6 4.55-.59 4.56v9.11l.59 4.35.6 4.56 1.19 4.55 1.18 4.36 1.59 4.15 2 4.16 2.18 4 2.37 4 2.58 3.57 3 3.56 3.16 3.37 3.17 3.16 3.57 2.78 3.76 2.77 3.76 2.37 4.16 2.18 4.1599 1.78 4.15 1.59 4.36 1.38 4.36 1 4.55.8 4.55.39 4.56.2 4.55-.2 4.56-.39 4.55-.8 4.36-1 4.37-1.09 4.16-1.59 4.16-1.78 4.16-2.18 3.76-2.37 3.76-2.77 3.56-2.78 3.17-3.16 3.17-3.37 3-3.56 2.57-3.57 2.38-4 2.18-4 2-4.16 1.58-4.15 1.19-4.36 1.19-4.55.59-4.56.6-4.35v-9.11l-.6-4.56-.59-4.55-1.19-4.36-1.19-4.35-1.58-4.3599-2-4.16-2.18-4-2.38-4-2.57-3.56-3-3.56-3.17-3.37-3.17-3-3.56-3-3.76-2.57-3.76-2.58-4.16-2-4.16-2-4.18-1.61-4.35-1.39-4.34-.99-4.55-.79-4.56-.4-4.55-.19h-2.18l-4.36.39-4.35.6-4.16.79-4.16 1-4.16 1.38-3.9999 1.39-3.76 2-3.76 2-3.76 2.18-3.57 2.57-3.16 2.77-3.17 2.78-3 3.16-2.77 3.17-2.58 3.57-2.3 3.51-2.18 3.76-2 3.76-1.59 3.9999-1.38 4-1.19 4.16-1 4.16-.56 4.27-.4 4.35v8.52l.59 4.15.6 4.36 1 4.16 1.19 4.16 1.38 4 1.78 4 1.79 3.76 2.17 3.69 2.38 3.56 2.77 3.37 2.77 3.37 3 3 3.1699 3 3.3301 2.55 3.58 2.53 3.57 2.18 3.76 2 3.9999 1.78 4 1.59 4.16 1.19 4.15 1 4.16.79 4.36.59 4.35.2h1.19m-6.41-.04 3.76.79 3.76.79 3.17.2 2 .2h5.94l3.76-.4 4.16-.59 4.35-1 4.16-1.19 5.35-2.37 5-2.58 4.35-3 3.77-3 3.16-3 3.17-3.36 3.17-4 3-4.76 2.38-4.55 1.38-3.37 1.19-3.36.79-3 .79-2.77.4-3 .4-2.38m-64.77 49.74h.79l4.36-.4 4.16-.59 4.35-.79 4.16-1 4-1.39 4-1.58 4-1.78 3.76-2.18 3.57-2.18 3.56-2.57 3.37-2.78 3.16-2.77 3-3.17 2.78-3.36 2.37-3.37 2.38-3.56 2.18-3.76 1.78-3.77 1.78-4 1.39-4.15 1-4.16 1-4.16.59-4.36.4-4.15v-4.36l-.2-4.16-.4-4.35-.59-4.16-1-4.36-1.19-4-1.58-4.1599-1.59-4-2-3.76-2.42-3.66-2.37-3.37-2.77-3.53-2.78-3.17-3-3-3.16-3-3.37-2.57-3.56-2.38-3.77-2.37-3.76-2-4-1.59-4-1.58-4.16-1.19-4.15-1-4.16-.79-1.19-.2" stroke="#171717" stroke-linecap="round" stroke-linejoin="round" stroke-width="1.35"/><path d="m107 105.449c-5.304 0-10.3914 2.107-14.1421 5.858-3.7508 3.751-5.8579 8.838-5.8579 14.142h40c0-5.304-2.107-10.391-5.858-14.142s-8.838-5.858-14.142-5.858z" fill="#171717"/><path d="m147 145.349c5.296 0 10.375-2.1 14.124-5.84 3.75-3.74 5.863-8.814 5.876-14.11h-40c.013 5.296 2.126 10.37 5.876 14.11 3.749 3.74 8.828 5.84 14.124 5.84z" fill="#171717"/><path d="m127 191.45c36.412 0 65.93-29.518 65.93-65.93 0-36.4123-29.518-65.9302-65.93-65.9302-36.4121 0-65.9299 29.5179-65.9299 65.9302 0 36.412 29.5178 65.93 65.9299 65.93z" stroke="#171717" stroke-linecap="round" stroke-linejoin="round" stroke-width=".45"/><path d="m83.04 71.4395-.99.2-2.37.4-2.38.5899-2.38.6001-2.17.99-2.18.9899-2.18.99-1.98 1.3801-1.98 1.39-1.78 1.58-1.78 1.78-1.59 1.79-1.58 1.78-1.39 2.18-1.18 2.17-1.19 2.18-.99 2.3799-.79 2.3701-.6 2.58-.4 2.3695-.19 2.58-.2 2.57.2 2.58.19 2.57.4 2.57.6 2.58.79 2.37.99 2.58 1.19 2.18 1.18 2.37 1.19 1.49" stroke="#171717" stroke-linecap="round" stroke-linejoin="round" stroke-width="1.35"/><path d="m63 22.5293h128.44" stroke="#171717" stroke-linecap="square" stroke-linejoin="round"/><path d="m63.83 26.27-6.48-3.74 6.48-3.74z" fill="#171717"/><path d="m190.07 26.27 6.48-3.74-6.48-3.74z" fill="#171717"/><path d="m111.034 13.5996v-1.264c0-.7787.133-1.4187.4-1.92.266-.50132.645-.90666 1.136-1.21599.501-.32 1.104-.58667 1.808-.8l.976-.304c.437-.13867.81-.30933 1.12-.512.32-.20267.565-.45333.736-.752.17-.30933.256-.66667.256-1.072v-.064c0-.62933-.214-1.12-.64-1.472-.427-.36267-.987-.544-1.68-.544-.715 0-1.296.192-1.744.576-.438.384-.656.94933-.656 1.696v.256h-1.664v-.24c0-.81067.176-1.49333.528-2.048.352-.56533.837-.99733 1.456-1.296.618-.29867 1.312-.448 2.08-.448s1.45.144 2.048.432c.608.288 1.082.69333 1.424 1.216.352.52267.528 1.136.528 1.84v.144c0 .72533-.144 1.328-.432 1.808s-.688.87467-1.2 1.184c-.502.30933-1.083.57067-1.744.784l-.944.288c-.502.14929-.907.31469-1.216.49599-.299.1707-.523.3787-.672.624-.139.2453-.208.56-.208.944v.16h6.32v1.504zm14.547 0v-2.288h-5.664v-1.95199l4.288-6.96h3.056v7.424h1.888v1.48799h-1.888v2.288zm-4.032-3.77599h4.032v-6.368h-.256l-3.776 6.144zm10.19 3.99999c-.373 0-.688-.1227-.944-.368-.245-.2453-.368-.56-.368-.944s.123-.6933.368-.928c.256-.2453.571-.368.944-.368.374 0 .683.1227.928.368.256.2453.384.5547.384.928 0 .384-.128.6987-.384.944-.245.2453-.554.368-.928.368zm7.11 0c-.864 0-1.621-.128-2.272-.384-.64-.256-1.141-.624-1.504-1.104-.352-.4907-.528-1.0613-.528-1.712v-.176c0-.53332.101-.97066.304-1.31199.213-.352.469-.624.768-.816.309-.20267.597-.336.864-.4v-.256c-.267-.07467-.539-.208-.816-.4-.277-.20267-.507-.464-.688-.784-.171-.33067-.256-.72533-.256-1.184v-.176c0-.59733.171-1.11467.512-1.552.352-.43733.837-.77867 1.456-1.024s1.339-.368 2.16-.368c.811 0 1.525.12267 2.144.368s1.099.58667 1.44 1.024c.352.43733.528.95467.528 1.552v.176c0 .45867-.091.85333-.272 1.184-.171.32-.389.58133-.656.784-.267.192-.539.32533-.816.4v.256c.277.064.565.19733.864.4.299.192.549.464.752.816.203.34133.304.77867.304 1.31199v.176c0 .6507-.181 1.2213-.544 1.712-.352.48-.853.848-1.504 1.104-.64.256-1.387.384-2.24.384zm0-1.504c.811 0 1.445-.1547 1.904-.464.469-.32.704-.7627.704-1.328v-.128c0-.57599-.229-1.01866-.688-1.32799-.448-.32-1.088-.48-1.92-.48s-1.477.16-1.936.48c-.459.30933-.688.752-.688 1.32799v.128c0 .5653.229 1.008.688 1.328.469.3093 1.115.464 1.936.464zm0-5.23199c.757 0 1.349-.144 1.776-.432.437-.288.656-.69333.656-1.216v-.128c0-.52267-.219-.92267-.656-1.2-.437-.288-1.029-.432-1.776-.432-.757 0-1.355.144-1.792.432-.437.27733-.656.67733-.656 1.2v.128c0 .52267.213.928.64 1.216.437.288 1.04.432 1.808.432z" fill="#171717"/><path d="m57.35 17.0195v34.67" stroke="#171717" stroke-linecap="square" stroke-linejoin="round"/><path d="m17.77 137.97v53.64" stroke="#171717" stroke-linecap="square" stroke-linejoin="round"/><path d="m14.03 190.52 3.74 6.47 3.74-6.47z" fill="#171717"/><path d="m17.77 61.5801v54.3899" stroke="#171717" stroke-linecap="square" stroke-linejoin="round"/><path d="m14.03 62.6695 3.74-6.48 3.74 6.48z" fill="#171717"/><path d="m1.56365 131.859v-1.264c0-.778.13334-1.418.4-1.92.26667-.501.64534-.906 1.136-1.216.50134-.32 1.104-.586 1.808-.8l.976-.304c.43734-.138.81067-.309 1.12-.512.32-.202.56534-.453.736-.752.17067-.309.256-.666.256-1.072v-.064c0-.629-.21333-1.12-.64-1.472-.42666-.362-.98666-.544-1.68-.544-.71466 0-1.296.192-1.744.576-.43733.384-.656.95-.656 1.696v.256h-1.664v-.24c0-.81.176-1.493.528-2.048.352-.565.83734-.997 1.456-1.296.61867-.298 1.312-.448 2.08-.448s1.45067.144 2.048.432c.608.288 1.08267.694 1.424 1.216.352.523.528 1.136.528 1.84v.144c0 .726-.144 1.328-.432 1.808s-.688.875-1.2 1.184c-.50133.31-1.08266.571-1.744.784l-.944.288c-.50133.15-.90666.315-1.216.496-.29866.171-.52266.379-.672.624-.13866.246-.208.56-.208.944v.16h6.32v1.504zm14.54755 0v-2.288h-5.664v-1.952l4.288-6.96h3.056v7.424h1.888v1.488h-1.888v2.288zm-4.032-3.776h4.032v-6.368h-.256l-3.776 6.144zm10.1901 4c-.3734 0-.688-.122-.944-.368-.2454-.245-.368-.56-.368-.944s.1226-.693.368-.928c.256-.245.5706-.368.944-.368.3733 0 .6826.123.928.368.256.246.384.555.384.928 0 .384-.128.699-.384.944-.2454.246-.5547.368-.928.368zm7.1099 0c-.864 0-1.6214-.128-2.272-.384-.64-.256-1.1414-.624-1.504-1.104-.352-.49-.528-1.061-.528-1.712v-.176c0-.533.1013-.97.304-1.312.2133-.352.4693-.624.768-.816.3093-.202.5973-.336.864-.4v-.256c-.2667-.074-.5387-.208-.816-.4-.2774-.202-.5067-.464-.688-.784-.1707-.33-.256-.725-.256-1.184v-.176c0-.597.1706-1.114.512-1.552.352-.437.8373-.778 1.456-1.024.6186-.245 1.3386-.368 2.16-.368.8106 0 1.5253.123 2.144.368.6186.246 1.0986.587 1.44 1.024.352.438.528.955.528 1.552v.176c0 .459-.0907.854-.272 1.184-.1707.32-.3894.582-.656.784-.2667.192-.5387.326-.816.4v.256c.2773.064.5653.198.864.4.2986.192.5493.464.752.816.2026.342.304.779.304 1.312v.176c0 .651-.1814 1.222-.544 1.712-.352.48-.8534.848-1.504 1.104-.64.256-1.3867.384-2.24.384zm0-1.504c.8106 0 1.4453-.154 1.904-.464.4693-.32.704-.762.704-1.328v-.128c0-.576-.2294-1.018-.688-1.328-.448-.32-1.088-.48-1.92-.48s-1.4774.16-1.936.48c-.4587.31-.688.752-.688 1.328v.128c0 .566.2293 1.008.688 1.328.4693.31 1.1146.464 1.936.464zm0-5.232c.7573 0 1.3493-.144 1.776-.432.4373-.288.656-.693.656-1.216v-.128c0-.522-.2187-.922-.656-1.2-.4374-.288-1.0294-.432-1.776-.432-.7574 0-1.3547.144-1.792.432-.4374.278-.656.678-.656 1.2v.128c0 .523.2133.928.64 1.216.4373.288 1.04.432 1.808.432z" fill="#171717"/><path d="m12.8401 56.1895h35.2" stroke="#171717" stroke-linecap="square" stroke-linejoin="round"/><path d="m12.8401 196.989h35.2" stroke="#171717" stroke-linecap="square" stroke-linejoin="round"/><path d="m196.55 16.4893v34.68" stroke="#171717" stroke-linecap="square" stroke-linejoin="round"/><path d="m25.13 724.529h396.24" stroke="#171717" stroke-linecap="square" stroke-linejoin="round"/><path d="m26.23 728.27-6.48-3.74 6.48-3.74z" fill="#171717"/><path d="m420.27 728.27 6.48-3.74-6.48-3.74z" fill="#171717"/><path d="m209.111 744.3v-.4c0-.406.032-.742.096-1.008.064-.278.197-.598.4-.96l4-7.12v-.208h-6.288v-1.504h8.032v1.984l-4.208 7.552c-.128.234-.219.448-.272.64-.054.181-.08.41-.08.688v.336zm7.34 0v-1.264c0-.779.133-1.419.4-1.92.267-.502.645-.907 1.136-1.216.501-.32 1.104-.587 1.808-.8l.976-.304c.437-.139.811-.31 1.12-.512.32-.203.565-.454.736-.752.171-.31.256-.667.256-1.072v-.064c0-.63-.213-1.12-.64-1.472-.427-.363-.987-.544-1.68-.544-.715 0-1.296.192-1.744.576-.437.384-.656.949-.656 1.696v.256h-1.664v-.24c0-.811.176-1.494.528-2.048.352-.566.837-.998 1.456-1.296.619-.299 1.312-.448 2.08-.448s1.451.144 2.048.432c.608.288 1.083.693 1.424 1.216.352.522.528 1.136.528 1.84v.144c0 .725-.144 1.328-.432 1.808s-.688.874-1.2 1.184c-.501.309-1.083.57-1.744.784l-.944.288c-.501.149-.907.314-1.216.496-.299.17-.523.378-.672.624-.139.245-.208.56-.208.944v.16h6.32v1.504zm11.002.224c-.373 0-.688-.123-.944-.368-.245-.246-.368-.56-.368-.944s.123-.694.368-.928c.256-.246.571-.368.944-.368.374 0 .683.122.928.368.256.245.384.554.384.928 0 .384-.128.698-.384.944-.245.245-.554.368-.928.368zm8.342-.224v-2.288h-5.664v-1.952l4.288-6.96h3.056v7.424h1.888v1.488h-1.888v2.288zm-4.032-3.776h4.032v-6.368h-.256l-3.776 6.144z" fill="#171717"/><g stroke="#171717" stroke-linejoin="round"><path d="m19.75 695.92v34.68" stroke-linecap="square"/><path d="m426.75 695.399v34.67" stroke-linecap="square"/><path d="m272.63 77.5201.2-.2 1.98-.79 1.78-.2" stroke-linecap="round" stroke-width=".45"/><path d="m260.15 118.3-.98-.19-.99-.4-.99-.59-.6-.99-.59-1.19-.6-1.39v-.79" stroke-linecap="round" stroke-width=".45"/><path d="m274.41 87.6099-.4-.19h-.59-.59l-.79.39-.8.4-.79.59-.99.79-.79.99-.79.99-.8.99-.79 1.39-.79 1.19-.59 1.38-.6 1.39" stroke-linecap="round" stroke-width=".45"/><path d="m273.22 96.7197h.2.2" stroke-linecap="round" stroke-width=".45"/><path d="m264.31 97.9092-.59 1.39-.4 1.3798-.19 1.19-.2 1.19v1.19.99l.2.99.19.59.4.59.59.6h.2" stroke-linecap="round" stroke-width=".45"/><path d="m291.44 72.5693-2.57.19-2.58.4-2.57.4-2.38.79-2.57.79-2.18 1.19" stroke-linecap="round" stroke-width=".45"/><path d="m321.73 161.47v1.78 3.37 2.97 2.57 2.38 1.78 1.38.2" stroke-linecap="round" stroke-width=".45"/><path d="m337.77 189.39v.99.59.2" stroke-linecap="round" stroke-width=".45"/><path d="m341.93 188.789v-.39-.99" stroke-linecap="round" stroke-width=".45"/><path d="m341.93 107.219-.6-3.17-.79-2.97-1.18-2.5798-1.39-1.98-1.19-1.18-1.39-.8-1.58-.39-1.58-.2-1.98.2-.6.2" stroke-linecap="round" stroke-width=".45"/><path d="m324.31 162.06h-.6-.2l-.19.2h-.2l-.2.4v.19" stroke-linecap="round" stroke-width=".45"/><path d="m341.93 89.79v.2.79 1.19 1.78 2.18 2.57 2.78 2.97 2.97" stroke-linecap="round" stroke-width=".45"/><path d="m260.35 114.15h-.79l-.79-.2-.79-.6-.4-.59-.59-.79-.4-.79-.2-1.19-.2-1.19v-1.39-1.38l.2-1.59.2-1.58.4-1.78.59-1.7804.6-1.79.59-1.78.79-1.58.99-1.78.79-1.79.99-1.58.99-1.58 1.19-1.39.99-1.39 1.19-1.18 1.19-1.19.99-.79 1.19-.8.99-.59.99-.59.98-.2.99-.2" stroke-linecap="round" stroke-width=".45"/><path d="m260.75 96.9197-.6 1.39-.39 1.58-.4 1.3903-.19 1.38-.2 1.39v1.19l.2.99.19.99.2.79.4.59.59.6.59.39h.6.79l.79-.2.99-.19.8-.6.99-.59.98-.99.8-.99.99-.99.99-1.19.79-1.39.79-1.38.79-1.3903.79-1.38.6-1.59" stroke-linecap="round" stroke-width=".45"/><path d="m260.75 96.9197v-.2" stroke-linecap="round" stroke-width=".45"/><path d="m273.62 96.5194.59-1.58.4-1.39.39-1.38.2-1.39.2-1.38v-1.19l-.2-.99-.2-.99-.19-.79-.4-.8-.59-.39-.6-.4-.59-.2h-.79l-.79.2-.99.4-.8.59-.99.6-.99.79-.79.99-.99 1.19-.99 1.18-.79 1.39-.79 1.39-.8 1.38-.79 1.39-.59 1.58" stroke-linecap="round" stroke-width=".45"/><path d="m273.62 96.5195v.2" stroke-linecap="round" stroke-width=".45"/><path d="m274.01 79.0996.8.2.79.2.59.59.6.59.59.8.4.79.2 1.19.19 1.18v1.39 1.39l-.19 1.58-.4 1.58-.4 1.79-.39 1.78-.6 1.58-.79 1.78-.59 1.79-.99 1.7804-.8 1.78-.98 1.58-1.19 1.59-.99 1.38-1.19 1.39-.99 1.19-1.19 1.19-.99.79-1.19.79-.99.59-.99.6-.99.2h-.99" stroke-linecap="round" stroke-width=".45"/><path d="m323.71 88.5996.99 1.59.8 2.18.39 2.57.2 2.97-.2 3.1704-.59 3.56-.8 3.76-1.18 3.96-1.39 3.96-1.58 3.77-1.98 3.96-1.98 3.76-2.18 3.56-2.38 3.17-2.57 2.97-2.38 2.57-2.57 2.18-2.38 1.78-2.37 1.39-2.18.59-1.98.4" stroke-linecap="round" stroke-width="1.35"/><path d="m291.64 72.5693h-.2" stroke-linecap="round" stroke-width=".45"/><path d="m276.59 76.3301 1.19.2.99.39.99.99.59.79.59.99.2 1.39.4 1.39v1.78 1.58l-.2 1.98-.4 1.78-.59 2.58-.79 2.57-.79 2.58-.99 2.37-1.39 2.5799-1.39 2.57-1.18 1.98-1.19 1.78-1.39 1.78-1.18 1.59-1.39 1.58-1.39 1.19-1.38 1.19-1.19.79-1.78.79-1.39.6-1.39.19" stroke-linecap="round" stroke-width=".45"/><path d="m397.37 125.829v-.2-.4-.39-.4" stroke-linecap="round" stroke-width=".45"/><path d="m397.37 122.26v1.19.99" stroke-linecap="round" stroke-width=".45"/><path d="m392.62 188.2.79-4.75.59-4.95.8-5.35.59-5.54.59-6.34.4-5.15.39-5.74.2-6.34.2-6.53.2-7.33" stroke-linecap="round" stroke-width="1.35"/><path d="m392.62 64.25.79 4.75.59 5 .8 5.35.59 5.74.59 6.14.4 5.34.4 5.75.19 6.13.2 6.74v1c0 2 .2 10.49.2 14.05v-2" stroke-linecap="round" stroke-width="1.35"/><path d="m397.37 126.619v.2.39.4.59" stroke-linecap="round" stroke-width=".45"/><path d="m389.25 191.759.99-.2.99-.39.59-.79.6-.99.2-1.19" stroke-linecap="round" stroke-width="1.35"/><path d="m392.62 188.2v-.2-.2-.59-.6-.79-1.19-1.18-1.39-1.58-1.79-1.98-1.98-2.37-2.38-2.37-2.78-2.77-2.77-3.17-2.97-3.17-3.36-3.17-3.37-3.36-3.57-3.36-3.57-3.36-3.57-3.36-3.37-3.36-3.37-3.17-3.36-2.97-2.97-2.97-2.78-2.57-2.57-2.38-2.18-2.18-1.98-1.78-1.58-1.39-1.19-.99-.99-.59-.59-.2-.2" stroke-linecap="round" stroke-width=".45"/><path d="m389.25 60.6895.99.19.79.6.79.59.6 1.19.2.99" stroke-linecap="round" stroke-width="1.35"/><path d="m368.06 195.52v-.39-.4-.79-.79-.99-1.19-1.39-1.58-1.78-1.98-1.98-2.38-2.37-2.58-2.57-2.77-2.97-2.97-3.17-3.17-3.37-3.36-3.37-3.56-3.57-3.56-7.72" stroke-linecap="round" stroke-width=".45"/><path d="m368.06 129.85v-13.72-3.77-3.36-3.57-3.56-3.3701-3.16-3.37-3.17-2.97-2.77-2.97-2.57-2.58-2.37-2.18-2.18-1.78-1.78-1.59-1.38-1.19-1.19l-.19-.79v-.6-.59-.2-.2" stroke-linecap="round" stroke-width=".45"/><path d="m389.25 191.759v-.39-.4-.59-.99-.99-1.19-1.39-1.58-1.78-1.98-1.98-2.18-2.38-2.57-2.58-2.77-2.97-2.97-3.17-3.16-3.17-3.37-3.36-3.57-3.36-3.57-3.56-3.57-3.56-3.56-3.37-3.56-3.37-3.56-3.17-3.3695-3.17-3.16-2.97-2.78-2.77-2.77-2.38-2.37-2.38-1.98-1.98-1.58-1.59-1.58-1.19-.99-.79-.79-.4-.39" stroke-linecap="round" stroke-width=".45"/><path d="m368.86 56.7295 3.16.39 3.17.6 3.57.59 3.17.59 3.36.8 3.96.99" stroke-linecap="round" stroke-width="1.35"/><path d="m341.14 186.219-.4-.399-.59-.591" stroke-linecap="round" stroke-width=".45"/><path d="m341.93 187.41-.4-.4-.39-.79" stroke-linecap="round" stroke-width=".45"/><path d="m364.5 187.8v-.39-1.19-1.59" stroke-linecap="round" stroke-width=".45"/><path d="m337.77 189.39v-.4l-.2-.4" stroke-linecap="round" stroke-width=".45"/><path d="m336.78 187.8.79.79" stroke-linecap="round" stroke-width=".45"/><path d="m321.93 177.699.4.8.79.99 1.19 1.38 1.78 1.59" stroke-linecap="round" stroke-width=".45"/><path d="m326.09 182.46 1.39.99 1.18.59" stroke-linecap="round" stroke-width=".45"/><path d="m328.66 184.04 2.58.79 2.18.99 1.97.99 1.39.99" stroke-linecap="round" stroke-width=".45"/><path d="m364.5 186.219v-.2-.99-1.58" stroke-linecap="round" stroke-width=".45"/><path d="m322.92 170.179v.79.79.4.2-.4-.59-.6-.99-.99-1.38-1.39-1.58-1.78-.8" stroke-linecap="round" stroke-width=".45"/><path d="m322.92 161.859v.8.39" stroke-linecap="round" stroke-width=".45"/><path d="m342.72 121.08v-.99-1.19-1.39-1.58-1.78l-.2-1.39-.2-1.58v-1.59l-.19-1.38-.2-.99" stroke-linecap="round" stroke-width=".45"/><path d="m328.46 160.279 1.79-1.39 1.98-1.58 1.58-1.78 1.58-1.98 1.39-2.38 1.19-2.57 1.39-3.96 1.18-3.96.79-4.16.6-4.16" stroke-linecap="round" stroke-width=".45"/><path d="m322.92 163.049h.4l.59-.59.79-.4.99-.59 1.19-.6 1.58-.59" stroke-linecap="round" stroke-width=".45"/><path d="m322.92 163.05v2.18 1.98 1.58 1.39" stroke-linecap="round" stroke-width=".45"/><path d="m322.92 170.18v1.58l.2 1.39" stroke-linecap="round" stroke-width=".45"/><path d="m323.12 173.149v.59l.2.6" stroke-linecap="round" stroke-width=".45"/><path d="m328.07 178.69-.99-.79-.99-.59-.79-.79-.6-.6-.59-.59-.4-.4-.2-.39-.19-.2" stroke-linecap="round" stroke-width=".45"/><path d="m330.25 179.879-2.18-1.19" stroke-linecap="round" stroke-width=".45"/><path d="m340.15 185.23-.79-.79-1.19-.6-.99-.59-1.39-.79-1.39-.6-1.38-.59-1.39-.79-1.38-.6" stroke-linecap="round" stroke-width=".45"/><path d="m341.93 187.409v-4.16-2.38-2.57-2.97-2.97-3.17-3.17-3.56-4.75-4.95-4.95-5.15-5.15-5.15" stroke-linecap="round" stroke-width=".45"/><path d="m342.72 121.08-.2 5.54-.59 5.74" stroke-linecap="round" stroke-width=".45"/><path d="m364.5 188.199v.2" stroke-linecap="round" stroke-width=".45"/><path d="m364.5 188.199v.2" stroke-linecap="round" stroke-width=".45"/><path d="m365.69 58.8994c-.685.9245-1.098 2.0228-1.19 3.17v27.14" stroke-linecap="round" stroke-width="1.35"/><path d="m361.93 107.609-.6 1.19-.59 1.39-.4 1.38-.2 1.59-.19 1.38v1.39" stroke-linecap="round" stroke-width=".45"/><path d="m359.95 115.93v1.19 1.38 1.19 1.39 1.38 1.19 1.39 1.18" stroke-linecap="round" stroke-width=".45"/><path d="m364.5 191.759v-39.6c0-3.17-1.43-5.32-2.57-7.32l-1-2c-.82-1.64-1-3.72-1-6.34v-10.3" stroke-linecap="round" stroke-width=".45"/></g><path d="m365.1 122.07h1.38c.222-.02.445.007.657.077.211.07.406.182.573.33.166.148.301.328.396.53.094.201.147.42.154.643v5.15c0 1.83-1.19 1.78-1.78 1.78h-2c-1.19 0-1.19-1.08-1.19-1.78v-5.15c0-.75-.17-1.58 1-1.58h.8" fill="#171717"/><path d="m317.57 159.879-2.17-1.38-1.59-1.78-1.38-1.98-1.19-2.58-.79-2.97" stroke="#171717" stroke-linecap="round" stroke-linejoin="round" stroke-width="1.35"/><path d="m324.31 162.06-6.73-2.18" stroke="#171717" stroke-linecap="round" stroke-linejoin="round" stroke-width=".45"/><path d="m329.06 94.1494-3.37.39" stroke="#171717" stroke-linecap="round" stroke-linejoin="round" stroke-width="1.35"/><path d="m272.83 77.5195h-.2-.2l-.2.19-.59.4-.99.59-1.19.99-1.19.99-.99.99-1.18 1.19-.99 1.19-.99 1.39-.99 1.18-1 1.39-.79 1.39-.59.99-.4.99-.79 1.58" stroke="#171717" stroke-linecap="round" stroke-linejoin="round" stroke-width="1.35"/><path d="m259.56 92.96-.99 1.78-.2.79-.59 1.19-.4 1.19-.59 1.39-.4 1.38-.39 1.39-.2 1.58-.4 1.39-.19 1.38v1.39l-.2 1.39v1.18l.2 1.39v.59l.19.4v.2" stroke="#171717" stroke-linecap="round" stroke-linejoin="round" stroke-width="1.35"/><path d="m291.64 72.5693-2.58.19-2.57.2-2.38.4-2.37.59-2.18.6-2.18.79-2.18.79-2.18 1.19h-.19" stroke="#171717" stroke-linecap="round" stroke-linejoin="round" stroke-width="1.35"/><path d="m255.4 112.76.2 1.19.4 2.37.79 2.38.79 2.18.99 2.37.99 2.18 1.39 1.98 1.18 2.18 1.59 1.98 1.78 1.98 1.98 1.98 1.98 1.78 2.18 1.59 2.18 1.58 2.37 1.19 2.38 1.19 2.37.99 2.38.79 2.57.59 2.38.6 2.58.39 2.57.2h1.58" stroke="#171717" stroke-linecap="round" stroke-linejoin="round" stroke-width="1.35"/><path d="m274.41 87.6094.2.2v.4l.2.39v.6.79.99l-.2.99-.2 1.19-.2 1.19-.39 1.18-.6 1.19" stroke="#171717" stroke-linecap="round" stroke-linejoin="round" stroke-width=".45"/><path d="m273.22 96.7197-.2.79-.59 1.19-.59 1.3903-.79 1.19-.6 1.18-.79 1.19-.79.99-.8.79-.79.8-.79.59-.59.59-.6.2-.39.2-.4.2h-.2" stroke="#171717" stroke-linecap="round" stroke-linejoin="round" stroke-width=".45"/><path d="m295 146.42h.4" stroke="#171717" stroke-linecap="round" stroke-linejoin="round" stroke-width=".45"/><path d="m323.71 88.5993-1.19-1.58-1.78-1.98-1.98-1.98-1.98-1.58-2.17-1.79-2.38-1.38-2.18-1.19-2.37-1.19-2.38-.99-2.57-.79-2.38-.59-2.58-.4-2.57-.4-2.38-.19h-1.18" stroke="#171717" stroke-linecap="round" stroke-linejoin="round" stroke-width="1.35"/><path d="m365.69 193.54 2.38 2c.101.102.228.174.367.209s.286.032.423-.009l3.17-.39 3.36-.4 3.37-.59 3.17-.8 3.36-.79 4-1" stroke="#171717" stroke-linecap="round" stroke-linejoin="round" stroke-width="1.35"/><path d="m367.87 56.9199-2.18 1.98" stroke="#171717" stroke-linecap="round" stroke-linejoin="round" stroke-width="1.35"/><path d="m368.86 56.7295h-.2-.2-.2l-.2.19h-.19" stroke="#171717" stroke-linecap="round" stroke-linejoin="round" stroke-width="1.35"/><path d="m337.77 191.17.6-.99.99-.99 1.38-.4h1.19" stroke="#171717" stroke-linecap="round" stroke-linejoin="round" stroke-width="1.35"/><path d="m317.57 188 .4 1.78.4 1.59.59 1.18.6.99.79.99.59.6.79.79 1.39.79 1.38.6 1.59.39 1.78.2h1.58l1.59-.4 1.39-.59 1.38-.79.79-.6.79-.59.8-.99.59-.99.79-1.19.2-.59" stroke="#171717" stroke-linecap="round" stroke-linejoin="round" stroke-width="1.35"/><path d="m317.57 160.08v.6 2.77 2.77 2.38 1.98 1.98 1.38 1.39 1.38 1.59 1.78 1.58 1.79 1.38 1.39.99.59" stroke="#171717" stroke-linecap="round" stroke-linejoin="round" stroke-width="1.35"/><path d="m341.93 188.79h.2.39" stroke="#171717" stroke-linecap="round" stroke-linejoin="round" stroke-width=".45"/><path d="m342.52 188.79h.79l1.39.2" stroke="#171717" stroke-linecap="round" stroke-linejoin="round" stroke-width="1.35"/><path d="m363.31 188.989h.4.2l.39-.4.2-.19" stroke="#171717" stroke-linecap="round" stroke-linejoin="round" stroke-width=".45"/><path d="m344.5 188.989h19.01" stroke="#171717" stroke-linecap="round" stroke-linejoin="round" stroke-width="1.35"/><path d="m321.93 177.699-1.78 1.39-1.39 2.18-.99 2.37v1.79" stroke="#171717" stroke-linecap="round" stroke-linejoin="round" stroke-width=".45"/><path d="m342.13 89.5898-3.37.6-3.17.59-3.16 1.19-2.98 1.39-1.38.99h-.2" stroke="#171717" stroke-linecap="round" stroke-linejoin="round" stroke-width="1.35"/><path d="m322.92 162.85v.2" stroke="#171717" stroke-linecap="round" stroke-linejoin="round" stroke-width=".45"/><path d="m344.5 89.5898h-2.57" stroke="#171717" stroke-linecap="round" stroke-linejoin="round" stroke-width="1.35"/><path d="m364.4 89.3994-19.9.19" stroke="#171717" stroke-linecap="round" stroke-linejoin="round" stroke-width="1.35"/><path d="m310.45 149.189-.79-4.55c-.08-.41-1.48-1-2.58-1.59l-2.18-1.18" stroke="#171717" stroke-linecap="round" stroke-linejoin="round" stroke-width="1.35"/><path d="m310.05 146.82c2.24 5 7.53-16 9.8-25.74" stroke="#171717" stroke-linecap="round" stroke-linejoin="round" stroke-width=".45"/><path d="m363.71 189c0 3.27 1.47 4 2 4.55" stroke="#171717" stroke-linecap="round" stroke-linejoin="round" stroke-width="1.35"/><path d="m396.58 106.62c.92-1.94.79 18.87.79 20 0 .2-1.78 0-1.78 0" fill="#171717"/><path d="m364.5 89.21v10.88c.061 1.743-.35 3.471-1.19 5l-.79 1.58-.59 1" stroke="#171717" stroke-linecap="round" stroke-linejoin="round" stroke-width=".45"/><path d="m259.93 22.7598h132.24" stroke="#171717" stroke-linecap="square" stroke-linejoin="round"/><path d="m261.03 26.4995-6.48-3.74 6.48-3.74z" fill="#171717"/><path d="m391.07 26.4995 6.48-3.74-6.48-3.74z" fill="#171717"/><path d="m312.205 13.8301v-1.264c0-.7787.134-1.4187.4-1.92.267-.5014.646-.90669 1.136-1.21602.502-.32 1.104-.58667 1.808-.8l.976-.304c.438-.13867.811-.30934 1.12-.512.32-.20267.566-.45334.736-.752.171-.30934.256-.66667.256-1.072v-.064c0-.62934-.213-1.12-.64-1.472-.426-.36267-.986-.544-1.68-.544-.714 0-1.296.192-1.744.576-.437.384-.656.94933-.656 1.696v.256h-1.664v-.24c0-.81067.176-1.49334.528-2.048.352-.56534.838-.99734 1.456-1.296.619-.29867 1.312-.448 2.08-.448s1.451.144 2.048.432c.608.288 1.083.69333 1.424 1.216.352.52266.528 1.136.528 1.84v.144c0 .72533-.144 1.328-.432 1.808s-.688.87466-1.2 1.184c-.501.30933-1.082.57066-1.744.784l-.944.28802c-.501.1493-.906.3146-1.216.496-.298.1706-.522.3786-.672.624-.138.2453-.208.56-.208.944v.16h6.32v1.504zm12.907 0v-10.01602h-.256l-1.84 3.776h-1.776l2.48-4.96h3.072v11.20002zm5.049.224c-.373 0-.688-.1227-.944-.368-.245-.2454-.368-.56-.368-.944s.123-.6934.368-.928c.256-.2454.571-.368.944-.368s.683.1226.928.368c.256.2453.384.5546.384.928 0 .384-.128.6986-.384.944-.245.2453-.555.368-.928.368zm6.998 0c-.832 0-1.547-.1387-2.144-.416-.597-.288-1.056-.688-1.376-1.2-.32-.5227-.48-1.1307-.48-1.824h1.712c0 .5546.181 1.0186.544 1.392.373.3626.955.544 1.744.544.8 0 1.413-.2134 1.84-.64.427-.4267.64-1.008.64-1.744v-1.34402h-.256c-.181.256-.475.50133-.88.736-.405.23466-.992.352-1.76.352-.651 0-1.253-.144-1.808-.432s-1.003-.69867-1.344-1.232c-.331-.544-.496-1.18934-.496-1.936v-.192c0-.74667.171-1.39734.512-1.952.352-.55467.837-.98667 1.456-1.296.629-.30934 1.349-.464 2.16-.464.821 0 1.536.16 2.144.48.619.30933 1.099.74666 1.44 1.312.341.55466.512 1.21066.512 1.968v3.87202c0 .8746-.176 1.6106-.528 2.208-.341.5973-.827 1.0506-1.456 1.36-.619.2986-1.344.448-2.176.448zm.048-5.50402c.491 0 .917-.096 1.28-.288s.645-.45334.848-.784c.203-.34134.304-.74134.304-1.2v-.128c0-.69334-.224-1.23734-.672-1.632-.437-.40534-1.024-.608-1.76-.608s-1.328.20266-1.776.608c-.437.39466-.656.93866-.656 1.632v.128c0 .45866.096.85866.288 1.2.203.33066.485.592.848.784.373.192.805.288 1.296.288z" fill="#171717"/><path d="m254.55 17.25v34.67" stroke="#171717" stroke-linecap="square" stroke-linejoin="round"/><path d="m397.55 16.7197v34.68" stroke="#171717" stroke-linecap="square" stroke-linejoin="round"/><path d="m430.17 151.189v32.03" stroke="#171717" stroke-linecap="square" stroke-linejoin="round"/><path d="m426.43 182.13 3.74 6.48 3.74-6.48z" fill="#171717"/><path d="m430.17 95.29v33.9" stroke="#171717" stroke-linecap="square" stroke-linejoin="round"/><path d="m426.43 96.3792 3.74-6.47 3.74 6.47z" fill="#171717"/><path d="m418.227 145.359v-10.016h-.256l-1.84 3.776h-1.776l2.48-4.96h3.072v11.2zm7.737.224c-.864 0-1.621-.128-2.272-.384-.64-.256-1.141-.624-1.504-1.104-.352-.49-.528-1.061-.528-1.712v-.176c0-.533.101-.97.304-1.312.213-.352.469-.624.768-.816.309-.202.597-.336.864-.4v-.256c-.267-.074-.539-.208-.816-.4-.277-.202-.507-.464-.688-.784-.171-.33-.256-.725-.256-1.184v-.176c0-.597.171-1.114.512-1.552.352-.437.837-.778 1.456-1.024.619-.245 1.339-.368 2.16-.368.811 0 1.525.123 2.144.368.619.246 1.099.587 1.44 1.024.352.438.528.955.528 1.552v.176c0 .459-.091.854-.272 1.184-.171.32-.389.582-.656.784-.267.192-.539.326-.816.4v.256c.277.064.565.198.864.4.299.192.549.464.752.816.203.342.304.779.304 1.312v.176c0 .651-.181 1.222-.544 1.712-.352.48-.853.848-1.504 1.104-.64.256-1.387.384-2.24.384zm0-1.504c.811 0 1.445-.154 1.904-.464.469-.32.704-.762.704-1.328v-.128c0-.576-.229-1.018-.688-1.328-.448-.32-1.088-.48-1.92-.48s-1.477.16-1.936.48c-.459.31-.688.752-.688 1.328v.128c0 .566.229 1.008.688 1.328.469.31 1.115.464 1.936.464zm0-5.232c.757 0 1.349-.144 1.776-.432.437-.288.656-.693.656-1.216v-.128c0-.522-.219-.922-.656-1.2-.437-.288-1.029-.432-1.776-.432-.757 0-1.355.144-1.792.432-.437.278-.656.678-.656 1.2v.128c0 .523.213.928.64 1.216.437.288 1.04.432 1.808.432zm7.093 6.736c-.373 0-.688-.122-.944-.368-.245-.245-.368-.56-.368-.944s.123-.693.368-.928c.256-.245.571-.368.944-.368.374 0 .683.123.928.368.256.246.384.555.384.928 0 .384-.128.699-.384.944-.245.246-.554.368-.928.368zm7.147 0c-1.301 0-2.341-.368-3.12-1.104-.768-.746-1.152-1.866-1.152-3.36v-2.72c0-1.461.384-2.57 1.152-3.328.779-.757 1.819-1.136 3.12-1.136 1.312 0 2.352.379 3.12 1.136.779.758 1.168 1.867 1.168 3.328v2.72c0 1.494-.389 2.614-1.168 3.36-.768.736-1.808 1.104-3.12 1.104zm0-1.504c.886 0 1.542-.25 1.968-.752.427-.512.64-1.226.64-2.144v-2.88c0-.917-.229-1.621-.688-2.112-.458-.501-1.098-.752-1.92-.752-.832 0-1.472.256-1.92.768-.448.502-.672 1.2-.672 2.096v2.88c0 .939.214 1.659.64 2.16.438.491 1.088.736 1.952.736z" fill="#171717"/><path d="m399.94 89.9092h35.2" stroke="#171717" stroke-linecap="square" stroke-linejoin="round"/><path d="m399.94 188.609h35.2" stroke="#171717" stroke-linecap="square" stroke-linejoin="round"/><path d="m459.17 379.72v80.04" stroke="#171717" stroke-linecap="square" stroke-linejoin="round"/><path d="m455.43 458.67 3.74 6.47 3.74-6.47z" fill="#171717"/><path d="m459.17 275.83v81.89" stroke="#171717" stroke-linecap="square" stroke-linejoin="round"/><path d="m455.43 276.919 3.74-6.48 3.74 6.48z" fill="#171717"/><path d="m447.673 374.583c-.821 0-1.552-.149-2.192-.448-.64-.298-1.141-.73-1.504-1.296-.352-.565-.528-1.237-.528-2.016v-.288h1.68v.256c0 .704.23 1.264.688 1.68.47.406 1.088.608 1.856.608s1.366-.192 1.792-.576c.427-.384.64-.869.64-1.456v-.144c0-.416-.101-.752-.304-1.008-.202-.256-.474-.442-.816-.56-.341-.128-.725-.192-1.152-.192h-2.032v-1.936l3.936-2.32v-.224h-6.016v-1.504h7.84v2.272l-3.76 2.24v.224h.688c.566 0 1.099.107 1.6.32.502.214.907.539 1.216.976.32.438.48.992.48 1.664v.192c0 .715-.17 1.339-.512 1.872-.341.523-.821.934-1.44 1.232-.618.288-1.338.432-2.16.432zm9.992 0c-1.302 0-2.342-.368-3.12-1.104-.768-.746-1.152-1.866-1.152-3.36v-2.72c0-1.461.384-2.57 1.152-3.328.778-.757 1.818-1.136 3.12-1.136 1.312 0 2.352.379 3.12 1.136.778.758 1.168 1.867 1.168 3.328v2.72c0 1.494-.39 2.614-1.168 3.36-.768.736-1.808 1.104-3.12 1.104zm0-1.504c.885 0 1.541-.25 1.968-.752.426-.512.64-1.226.64-2.144v-2.88c0-.917-.23-1.621-.688-2.112-.459-.501-1.099-.752-1.92-.752-.832 0-1.472.256-1.92.768-.448.502-.672 1.2-.672 2.096v2.88c0 .939.213 1.659.64 2.16.437.491 1.088.736 1.952.736zm7.149 1.504c-.373 0-.688-.122-.944-.368-.245-.245-.368-.56-.368-.944s.123-.693.368-.928c.256-.245.571-.368.944-.368.374 0 .683.123.928.368.256.246.384.555.384.928 0 .384-.128.699-.384.944-.245.246-.554.368-.928.368zm2.982-.224v-1.264c0-.778.134-1.418.4-1.92.267-.501.646-.906 1.136-1.216.502-.32 1.104-.586 1.808-.8l.976-.304c.438-.138.811-.309 1.12-.512.32-.202.566-.453.736-.752.171-.309.256-.666.256-1.072v-.064c0-.629-.213-1.12-.64-1.472-.426-.362-.986-.544-1.68-.544-.714 0-1.296.192-1.744.576-.437.384-.656.95-.656 1.696v.256h-1.664v-.24c0-.81.176-1.493.528-2.048.352-.565.838-.997 1.456-1.296.619-.298 1.312-.448 2.08-.448s1.451.144 2.048.432c.608.288 1.083.694 1.424 1.216.352.523.528 1.136.528 1.84v.144c0 .726-.144 1.328-.432 1.808s-.688.875-1.2 1.184c-.501.31-1.082.571-1.744.784l-.944.288c-.501.15-.906.315-1.216.496-.298.171-.522.379-.672.624-.138.246-.208.56-.208.944v.16h6.32v1.504z" fill="#171717"/><path d="m428.94 270.439h35.2" stroke="#171717" stroke-linecap="square" stroke-linejoin="round"/><path d="m428.94 465.14h35.2" stroke="#171717" stroke-linecap="square" stroke-linejoin="round"/><path d="m459.17 618.52v66.839" stroke="#171717" stroke-linecap="square" stroke-linejoin="round"/><path d="m455.43 684.27 3.74 6.47 3.74-6.47z" fill="#171717"/><path d="m459.17 526.729v69.791" stroke="#171717" stroke-linecap="square" stroke-linejoin="round"/><path d="m455.43 527.82 3.74-6.48 3.74 6.48z" fill="#171717"/><path d="m447.246 613.583c-.822 0-1.552-.149-2.192-.448-.64-.298-1.142-.73-1.504-1.296-.352-.565-.528-1.237-.528-2.016v-.288h1.68v.256c0 .704.229 1.264.688 1.68.469.406 1.088.608 1.856.608s1.365-.192 1.792-.576c.426-.384.64-.869.64-1.456v-.144c0-.416-.102-.752-.304-1.008-.203-.256-.475-.442-.816-.56-.342-.128-.726-.192-1.152-.192h-2.032v-1.936l3.936-2.32v-.224h-6.016v-1.504h7.84v2.272l-3.76 2.24v.224h.688c.565 0 1.098.107 1.6.32.501.214.906.539 1.216.976.32.438.48.992.48 1.664v.192c0 .715-.171 1.339-.512 1.872-.342.523-.822.934-1.44 1.232-.619.288-1.339.432-2.16.432zm9.671 0c-.843 0-1.574-.154-2.192-.464-.619-.309-1.099-.746-1.44-1.312-.331-.565-.496-1.221-.496-1.968v-.176h1.712v.16c0 .683.208 1.232.624 1.648.426.406 1.018.608 1.776.608.778 0 1.381-.213 1.808-.64.426-.426.64-1.002.64-1.728v-.144c0-.693-.214-1.248-.64-1.664-.416-.416-.95-.624-1.6-.624-.363 0-.667.059-.912.176-.235.107-.427.24-.576.4-.139.16-.256.315-.352.464h-2.128v-6.16h7.504v1.52h-5.824v3.296h.256c.106-.181.256-.352.448-.512.202-.17.464-.309.784-.416.32-.106.704-.16 1.152-.16.661 0 1.258.144 1.792.432.544.278.976.694 1.296 1.248.32.544.48 1.206.48 1.984v.176c0 .779-.166 1.456-.496 2.032-.331.576-.806 1.024-1.424 1.344-.608.32-1.339.48-2.192.48zm6.954 0c-.373 0-.688-.122-.944-.368-.245-.245-.368-.56-.368-.944s.123-.693.368-.928c.256-.245.571-.368.944-.368s.683.123.928.368c.256.246.384.555.384.928 0 .384-.128.699-.384.944-.245.246-.555.368-.928.368zm7.147 0c-1.301 0-2.341-.368-3.12-1.104-.768-.746-1.152-1.866-1.152-3.36v-2.72c0-1.461.384-2.57 1.152-3.328.779-.757 1.819-1.136 3.12-1.136 1.312 0 2.352.379 3.12 1.136.779.758 1.168 1.867 1.168 3.328v2.72c0 1.494-.389 2.614-1.168 3.36-.768.736-1.808 1.104-3.12 1.104zm0-1.504c.885 0 1.541-.25 1.968-.752.427-.512.64-1.226.64-2.144v-2.88c0-.917-.229-1.621-.688-2.112-.459-.501-1.099-.752-1.92-.752-.832 0-1.472.256-1.92.768-.448.502-.672 1.2-.672 2.096v2.88c0 .939.213 1.659.64 2.16.437.491 1.088.736 1.952.736z" fill="#171717"/><path d="m428.94 521.34h35.2" stroke="#171717" stroke-linecap="square" stroke-linejoin="round"/><path d="m428.94 690.739h35.2" stroke="#171717" stroke-linecap="square" stroke-linejoin="round"/></svg>