<svg fill="none" height="210" viewBox="0 0 1514 210" width="1514" xmlns="http://www.w3.org/2000/svg" xmlns:xlink="http://www.w3.org/1999/xlink"><linearGradient id="a"><stop offset=".271024" stop-color="#3333f5"/><stop offset=".661458" stop-color="#3381f5"/><stop offset="1" stop-color="#3381f5"/></linearGradient><linearGradient id="b" gradientUnits="userSpaceOnUse" x1="31.084" x2="76.0616" xlink:href="#a" y1="13.5978" y2="371.132"/><linearGradient id="c" gradientUnits="userSpaceOnUse" x1="65.6504" x2="112.112" xlink:href="#a" y1="9.85901" y2="374.106"/><linearGradient id="d" gradientUnits="userSpaceOnUse" x1="100.518" x2="148.088" xlink:href="#a" y1="9.85901" y2="373.815"/><linearGradient id="e" gradientUnits="userSpaceOnUse" x1="131.676" x2="180.282" xlink:href="#a" y1="9.85901" y2="373.536"/><linearGradient id="f" gradientUnits="userSpaceOnUse" x1="160.888" x2="209.632" xlink:href="#a" y1="11.6444" y2="371.889"/><linearGradient id="g" gradientUnits="userSpaceOnUse" x1="204.967" x2="254.318" xlink:href="#a" y1="13.5913" y2="369.962"/><linearGradient id="h" gradientUnits="userSpaceOnUse" x1="238.822" x2="289.444" xlink:href="#a" y1="13.608" y2="369.654"/><linearGradient id="i" gradientUnits="userSpaceOnUse" x1="274.662" x2="328.644" xlink:href="#a" y1="9.79285" y2="371.901"/><linearGradient id="j" gradientUnits="userSpaceOnUse" x1="308.404" x2="363.828" xlink:href="#a" y1="9.87" y2="371.528"/><linearGradient id="k" gradientUnits="userSpaceOnUse" x1="340.35" x2="399.285" xlink:href="#a" y1="6.19666" y2="373.757"/><linearGradient id="l" gradientUnits="userSpaceOnUse" x1="375.966" x2="436.672" xlink:href="#a" y1="6.19666" y2="373.236"/><linearGradient id="m" gradientUnits="userSpaceOnUse" x1="411.806" x2="475.26" xlink:href="#a" y1="4.69873" y2="373.59"/><linearGradient id="n" gradientUnits="userSpaceOnUse" x1="441.653" x2="506.769" xlink:href="#a" y1="4.69873" y2="372.992"/><linearGradient id="o" gradientUnits="userSpaceOnUse" x1="479.142" x2="546.468" xlink:href="#a" y1="4.69873" y2="372.169"/><linearGradient id="p" gradientUnits="userSpaceOnUse" x1="512.997" x2="582.979" xlink:href="#a" y1="3.89307" y2="371.894"/><linearGradient id="q" gradientUnits="userSpaceOnUse" x1="553.068" x2="626.076" xlink:href="#a" y1="3.46362" y2="371.149"/><linearGradient id="r" gradientUnits="userSpaceOnUse" x1="590.932" x2="668.454" xlink:href="#a" y1="1" y2="371.563"/><linearGradient id="s" gradientUnits="userSpaceOnUse" x1="0" x2=".001149" xlink:href="#a" y1="208.148" y2="210.015"/><g stroke-miterlimit="10" stroke-width="2"><path d="m1470.94 206.688c-454.01.225-785.858.075-872.781 0-8.95 0-31.795-.112-61.868-3.258-45.315-4.755-116.658-12.245-185.642-52.089-6.591-3.819-40.222-33.402-107.483-85.1543-49.322-37.9714-44.566-53.1-79.882-52.5758-25.279.3745-51.719 54.4107-76.3613 72.61-24.4927 18.0871-36.5517 97.4001-55.8387 121.9281" stroke="url(#b)"/><path d="m1513 206.689s-785.862.075-872.784 0c-8.951 0-31.796-.112-61.868-3.258-45.315-4.756-116.659-12.245-185.642-52.089-6.592-3.82-35.241-26.175-96.248-85.1547-31.945-30.9688-52.056-56.84472-87.372-56.32046-25.279.37446-63.292 55.30936-83.852 76.35466-21.272 21.7565-40.2966 97.3995-59.5836 121.9275" stroke="url(#c)"/><path d="m1513 200.81s-716.84 2.247-811.664 2.172c-8.951 0-50.521-.113-80.594-3.258-45.315-4.756-116.658-8.501-185.642-48.345-6.591-3.819-35.241-26.175-96.247-85.1543-31.946-31.0062-48.312-56.88212-83.665-56.35786-25.279.37446-74.339 57.55626-95.087 80.09936-22.695 24.6778-39.023 100.4708-59.583 118.1828" stroke="url(#d)"/><path d="m1513 194.893s-607.035 4.419-701.86 4.306c-8.951 0-125.422-.112-155.494-3.257-45.315-4.756-116.659-4.756-185.642-44.6-6.592-3.82-35.241-26.175-96.248-85.1547-31.983-30.9688-48.311-56.84472-83.665-56.32046-25.279.37446-74.339 57.55626-95.086 80.09936-22.695 24.6778-42.769 100.4708-63.329 118.1828" stroke="url(#e)"/><path d="m1513 188.976s-498.95 4.719-598.122 4.644c-9.362 0-69.433-.45-119.467-3.296-47.562-2.733-167.216-2.284-250.394-37.11-7.265-3.033-70.594-26.175-134.372-85.1544-33.481-30.9688-66.475-58.23031-87.559-56.3205-26.365 2.3217-70.295 57.5562-92.016 80.0994-23.744 24.6775-43.667 101.1445-70.182 116.3105" stroke="url(#f)"/><path d="m1513 183.097s-451.13 1.31-550.335 1.236c-9.363 0-69.433-.45-119.467-3.296-47.562-2.733-130.889-4.643-209.198-25.876-7.603-2.059-108.045-26.175-171.823-85.1545-33.481-30.9688-70.22-58.2303-91.305-56.3205-26.327 2.2843-81.454 71.2244-103.475 93.468-22.208 22.431-53.03 83.582-62.43 100.995" stroke="url(#g)"/><path d="m1513 177.18s-341.02-2.659-378.77-2.921c-155.611-1.161-145.799 1.011-215.981-4.456-49.21-3.82-88.121-2.996-164.258-18.387-7.715-1.573-145.233-26.587-231.743-81.41-38.537-24.4156-85.2-58.2303-106.285-56.3205-26.365 2.3592-75.762 59.6532-99.468 80.0994-30.111 25.9511-59.359 93.9171-77.673 114.4011" stroke="url(#h)"/><path d="m1513 171.263s-147.67-1.423-177.25-1.423c-18.88 0-151.08 1.91-255.94-4.568-58.35-3.595-143.435-7.565-194.63-15.017-9.175-1.348-179.575-27.111-282.115-82.9825-45.652-24.8648-112.164-59.27874-137.181-57.40639-49.921 3.70729-76.773 50.02939-110.404 81.63469-32.357 30.4072-59.134 95.6772-80.818 116.5732" stroke="url(#i)"/><path d="m1513 165.384s-25.95-2.996-143.51-2.996c-17.45 0-151.08 1.91-255.94-4.568-58.35-3.595-120.026-5.655-210.207-21.308-9.138-1.573-152.311-27.486-240.32-69.1646-47-22.2436-138.38-59.31622-163.396-57.40642-31.234 2.39662-72.28 46.58422-110.405 81.63472-32.694 30.0703-59.134 95.6773-80.818 116.5733" stroke="url(#j)"/><path d="m1513 159.468s-178.49-7.003-292.6-9.137c-58.46-1.086-144.67-3.071-232.681-13.818-9.213-1.124-152.311-23.742-240.32-65.4204-47-22.2436-162.76-64.97074-197.102-64.89585-31.309.03745-91.005 54.07365-129.129 89.12415-32.694 30.0701-59.135 91.9331-80.818 112.8281" stroke="url(#k)"/><path d="m1513 153.589s-139.09-8.651-253.24-10.748c-58.46-1.086-144.67-6.815-232.68-17.562-9.21-1.124-152.311-23.742-240.32-65.4205-47-22.2436-159.015-53.73661-193.357-53.66171-31.308.03745-94.749 54.07361-132.874 89.12411-32.694 30.0701-62.879 91.9701-84.563 112.8661" stroke="url(#l)"/><path d="m1513 147.672s-103.29-7.939-217.4-10.073c-58.46-1.086-144.67-10.561-232.68-21.308-9.21-1.123-146.319-28.8716-236.575-65.42-46.139-18.6861-124.335-46.17227-189.612-46.17227-31.308 0-102.24 57.81837-140.364 92.86887-32.694 30.0704-62.88 89.6854-84.563 110.5814" stroke="url(#m)"/><path d="m1513 141.755s-75.61-6.965-187.55-11.646c-58.39-2.434-144.67-10.56-232.68-21.307-9.22-1.124-130.892-23.3298-236.577-61.6757-48.873-17.7499-124.336-42.42757-189.612-42.42757-31.309 0-102.24 57.81837-140.364 92.86887-32.695 30.0704-62.88 89.6854-84.564 110.5814" stroke="url(#n)"/><path d="m1513 135.876s-86.36-6.703-150.06-9.474c-58.39-2.547-144.68-14.305-232.68-25.052-9.22-1.124-130.894-19.5851-236.579-57.931-48.873-17.7873-124.373-38.72027-189.612-38.72027-31.308 0-102.24 57.81837-140.364 92.86887-32.694 30.0704-62.88 89.6854-84.563 110.5814" stroke="url(#o)"/><path d="m1513 129.959s-22.69-2.621-116.21-9.587c-58.27-4.343-145.23-10.485-232.68-25.0517-46.89-7.8264-130.89-23.3295-236.573-61.6754-48.873-17.7499-120.816-36.36111-189.612-27.44869-31.047 4.00689-102.24 57.81839-140.365 92.86889-32.694 30.0699-62.879 88.1879-84.563 109.0839" stroke="url(#p)"/><path d="m1513 124.043s-49.1-5.43-76.14-7.752c-62.88-5.43-122.46-8.463-210.21-21.3072-75.09-10.972-140.85-30.1075-259.042-65.4201-49.809-14.8665-120.815-32.61646-189.612-23.70405-31.046 4.00684-99.094 61.60045-140.364 92.86885-36.178 27.4115-70.894 82.4215-84.564 109.4575" stroke="url(#q)"/><path d="m1513 118.163-38.27-1.872s-121.72-10.747-210.21-25.0522c-125.5-20.3338-165.05-35.5373-259.05-65.4201-49.546-15.7278-111.639-33.62755-189.611-19.95935-30.859 5.39235-99.094 61.60055-140.364 92.86885-36.177 27.4108-70.894 82.4208-84.563 109.4578" stroke="url(#r)"/><path d="m0 208.148h1513" stroke="url(#s)"/></g></svg>